<?xml version="1.0" encoding="utf-8"?>
<!-- Generator: Adobe Illustrator 16.0.0, SVG Export Plug-In . SVG Version: 6.00 Build 0)  -->
<!DOCTYPE svg PUBLIC "-//W3C//DTD SVG 1.1//EN" "http://www.w3.org/Graphics/SVG/1.1/DTD/svg11.dtd">
<svg version="1.1" id="Layer_1" xmlns="http://www.w3.org/2000/svg" xmlns:xlink="http://www.w3.org/1999/xlink" x="0px" y="0px"
	 width="120.283px" height="128.098px" viewBox="0 0 120.283 128.098" enable-background="new 0 0 120.283 128.098"
	 xml:space="preserve">
<polygon fill="#F78D1E" points="110.333,28.848 83.083,38.348 65.684,39.848 59.333,42.848 59.333,50.348 68.833,53.598 
	83.333,53.598 110.333,63.598 "/>
<rect x="57.883" y="116.398" fill="#4C3931" width="7.8" height="3.9"/>
<g>
	<defs>
		<rect id="SVGID_1_" width="120.283" height="128.098"/>
	</defs>
	<clipPath id="SVGID_2_">
		<use xlink:href="#SVGID_1_"  overflow="visible"/>
	</clipPath>
	<path clip-path="url(#SVGID_2_)" fill="#4C3931" d="M114.434,40.348h-1.95v-11.7c-0.001-0.633-0.307-1.228-0.819-1.6
		c-0.528-0.355-1.193-0.443-1.794-0.233l-11.037,3.939V16.948c-0.01-3.227-2.623-5.84-5.85-5.85h-62.4
		c-3.227,0.01-5.84,2.623-5.85,5.85v46.8c-0.998,0.005-1.831,0.762-1.931,1.754l-0.857,7.996H5.233c-1.076,0-1.95,0.874-1.95,1.949
		v27.301c0,1.075,0.874,1.949,1.95,1.949h19.5v17.551c0.01,3.227,2.623,5.84,5.85,5.85h62.4c3.227-0.01,5.84-2.623,5.85-5.85V61.642
		l11.037,3.939c0.597,0.222,1.266,0.136,1.788-0.231c0.521-0.365,0.83-0.965,0.825-1.602v-11.7h1.95c3.23,0,5.85-2.619,5.85-5.85
		S117.664,40.348,114.434,40.348 M19.079,100.798H7.183v-17.55h13.748L19.079,100.798z M21.34,79.348H7.183v-1.95h14.352
		L21.34,79.348z M28.633,16.948c0-1.076,0.874-1.95,1.95-1.95h62.4c1.076,0,1.95,0.874,1.95,1.95v5.85h-66.3V16.948z
		 M22.997,100.798l3.49-33.15h4.096v5.851h3.9v-5.851h11.7v5.851h3.9v-5.851h4.096l3.489,33.15H22.997z M34.483,63.748v-3.9
		c0-3.231,2.619-5.85,5.85-5.85s5.85,2.619,5.85,5.85v3.9H34.483z M94.934,122.249c0,1.075-0.874,1.949-1.95,1.949h-62.4
		c-1.076,0-1.95-0.874-1.95-1.949v-9.75h66.3V122.249z M94.934,108.598h-66.3v-3.9h44.85c1.076,0,1.95-0.874,1.95-1.949v-21.45
		c0-1.076-0.874-1.95-1.95-1.95H59.326l-1.462-13.846c-0.1-0.992-0.933-1.75-1.931-1.754h-5.85v-3.9c0-5.385-4.365-9.75-9.75-9.75
		c-5.385,0-9.75,4.365-9.75,9.75v3.9h-1.95v-37.05h66.3v5.46l-12.031,4.29h-15.27c-1.075,0-1.949,0.874-1.949,1.95v0.429
		l-6.318,1.579c-0.87,0.215-1.481,0.996-1.482,1.892v7.8c0.001,0.896,0.612,1.677,1.482,1.891l6.318,1.58v0.429
		c0,1.076,0.874,1.95,1.949,1.95h1.95v15.6c0,1.076,0.874,1.95,1.95,1.95h7.8c0.995,0.006,1.831-0.745,1.932-1.735l1.754-15.776
		l11.915,4.251V108.598z M60.146,87.148l-0.41-3.899h11.798v3.899H60.146z M71.533,91.048v9.75h-9.946l-1.033-9.75H71.533z
		 M69.583,40.348h11.7v11.7h-11.7V40.348z M79.1,55.948l-1.521,13.65h-4.096v-13.65H79.1z M65.684,42.844v6.708l-3.9-0.975v-4.758
		L65.684,42.844z M108.583,60.979l-23.399-8.346v-12.87l23.399-8.346V60.979z M114.434,48.148h-1.95v-3.9h1.95
		c1.075,0,1.949,0.874,1.949,1.95C116.383,47.274,115.509,48.148,114.434,48.148"/>
	<path clip-path="url(#SVGID_2_)" fill="#F4DC4D" d="M31.456,1.325c-4.68-2.702-10.654-1.101-13.357,3.579L1.328,33.953
		C-3,41.45,3.935,50.535,12.326,48.286c2.523-0.676,4.631-2.294,5.937-4.555l16.772-29.049C37.729,10.013,36.125,4.021,31.456,1.325
		"/>
	<path clip-path="url(#SVGID_2_)" fill="#E2C539" d="M24.196,33.454c11.842-20.512,10.984-18.987,11.265-19.6l-5.167-8.948
		c-1.315-2.278-3.462-3.935-6.101-4.595c-2.677,0.671-4.802,2.355-6.095,4.594l-5.167,8.949
		C13.237,14.522,12.475,13.151,24.196,33.454"/>
	<path clip-path="url(#SVGID_2_)" fill="#E2C539" d="M6.453,25.076l-5.125,8.878c-3.772,6.532,1.007,14.67,8.451,14.67
		c3.344,0,6.649-1.715,8.484-4.893l4.312-7.47C20.379,29.057,13.536,24.625,6.453,25.076"/>
	<path clip-path="url(#SVGID_2_)" fill="#A8D381" d="M19.239,36.312c-1.398-5.219-6.754-8.313-11.975-6.914
		c-8.393,2.249-9.851,13.586-2.358,17.912C12.381,51.625,21.5,44.75,19.239,36.312"/>
	<path clip-path="url(#SVGID_2_)" fill="#8BBDE6" d="M52.014,33.953L35.243,4.904c-1.306-2.262-3.415-3.88-5.937-4.556
		c-8.394-2.249-15.325,6.841-10.999,14.334l16.772,29.049c2.701,4.678,8.675,6.282,13.356,3.579
		C53.105,44.614,54.71,38.622,52.014,33.953"/>
	<path clip-path="url(#SVGID_2_)" fill="#A8D381" d="M19.239,36.312c-1.398-5.219-6.754-8.313-11.975-6.914
		c-8.393,2.249-9.851,13.586-2.358,17.912C12.381,51.625,21.5,44.75,19.239,36.312"/>
	<path clip-path="url(#SVGID_2_)" fill="#4C3931" d="M52.013,33.954L35.242,4.905c-3.781-6.549-13.379-6.521-17.144,0L1.328,33.954
		c-3.771,6.532,1.007,14.67,8.452,14.67c3.344,0,6.648-1.715,8.483-4.893l8.408-14.563l8.408,14.563
		c1.832,3.173,5.134,4.893,8.484,4.893C51.002,48.624,55.788,40.489,52.013,33.954 M15.294,42.018
		c-1.48,2.564-4.489,3.725-7.261,2.928c-3.979-1.156-5.787-5.73-3.738-9.279c1.755-3.039,5.634-4.079,8.675-2.324
		C16.009,35.098,17.049,38.978,15.294,42.018 M19.01,35.582c-1.596-4.534-6.269-7.236-10.999-6.351L17.48,12.83
		c0.422,1.291,0.125,0.637,7.211,12.911L19.01,35.582z M46.721,44.341c-3.039,1.755-6.92,0.716-8.675-2.324L21.274,12.969
		c-3.199-5.544,2.97-11.85,8.467-8.675c2.057,1.187,1.492,0.521,19.304,31.373C50.796,38.7,49.754,42.59,46.721,44.341"/>
</g>
</svg>
