<?xml version="1.0" encoding="utf-8"?>
<!-- Generator: Adobe Illustrator 16.0.0, SVG Export Plug-In . SVG Version: 6.00 Build 0)  -->
<!DOCTYPE svg PUBLIC "-//W3C//DTD SVG 1.1//EN" "http://www.w3.org/Graphics/SVG/1.1/DTD/svg11.dtd">
<svg version="1.1" id="Layer_1" xmlns="http://www.w3.org/2000/svg" xmlns:xlink="http://www.w3.org/1999/xlink" x="0px" y="0px"
	 width="109.167px" height="109.167px" viewBox="0 0 109.167 109.167" enable-background="new 0 0 109.167 109.167"
	 xml:space="preserve">
<rect x="78.236" y="1.398" fill="#F78D1E" width="28.765" height="27.713"/>
<rect x="78.409" y="58.922" fill="#F78D1E" width="28.765" height="27.713"/>
<g>
	<defs>
		<rect id="SVGID_1_" width="109.167" height="109.167"/>
	</defs>
	<clipPath id="SVGID_2_">
		<use xlink:href="#SVGID_1_"  overflow="visible"/>
	</clipPath>
	<path clip-path="url(#SVGID_2_)" fill="#4C3931" d="M63.68,94.611h-3.638v-17.83c0-1.006-0.815-1.82-1.82-1.82
		c-1.004,0-1.818,0.814-1.818,1.82v17.83H9.097V58.223h15.138c1.005,0,1.82-0.814,1.82-1.82c0-1.004-0.815-1.818-1.82-1.818H7.278
		c-1.005,0-1.82,0.814-1.82,1.818v38.209H1.819C0.815,94.611,0,95.427,0,96.431v3.639c0,5.025,4.072,9.098,9.097,9.098h47.306
		c5.023,0,9.097-4.072,9.097-9.098v-3.639C65.5,95.427,64.686,94.611,63.68,94.611 M61.861,100.069c0,3.016-2.444,5.458-5.458,5.458
		h-3.639v-1.818c0-1.004-0.815-1.82-1.82-1.82c-1.004,0-1.819,0.816-1.819,1.82v1.818h-32.75v-1.818c0-1.004-0.815-1.82-1.82-1.82
		c-1.004,0-1.819,0.816-1.819,1.82v1.818H9.097c-3.014,0-5.458-2.442-5.458-5.458v-1.818h58.222V100.069z"/>
	<path clip-path="url(#SVGID_2_)" fill="#4C3931" d="M94.611,10.917h3.639c1.004,0,1.819-0.815,1.819-1.819
		c0-1.005-0.815-1.82-1.819-1.82h-3.639c-3.016,0-5.458,2.444-5.458,5.458v1.82h-1.82c-1.004,0-1.819,0.815-1.819,1.819
		c0,1.005,0.815,1.82,1.819,1.82h1.82v5.458c0,1.004,0.814,1.82,1.818,1.82c1.005,0,1.82-0.816,1.82-1.82v-5.458h1.819
		c1.004,0,1.818-0.815,1.818-1.82c0-1.004-0.814-1.819-1.818-1.819h-1.819v-1.82C92.792,11.732,93.607,10.917,94.611,10.917"/>
	<path clip-path="url(#SVGID_2_)" fill="#4C3931" d="M103.708,0H81.875c-3.015,0-5.459,2.444-5.459,5.458v3.639
		c0,1.005,0.815,1.82,1.82,1.82c1.004,0,1.819-0.815,1.819-1.82V5.458c0-1.004,0.814-1.819,1.819-1.819h21.833
		c1.004,0,1.819,0.815,1.819,1.819v21.834c0,1.004-0.815,1.819-1.819,1.819H81.875c-1.005,0-1.819-0.815-1.819-1.819V16.375
		c0-1.004-0.815-1.819-1.819-1.819c-1.005,0-1.82,0.815-1.82,1.819v10.917c0,3.014,2.444,5.458,5.459,5.458h21.833
		c3.016,0,5.458-2.444,5.458-5.458V5.458C109.166,2.444,106.724,0,103.708,0"/>
	<path clip-path="url(#SVGID_2_)" fill="#4C3931" d="M85.514,72.778c0,2.943,1.773,5.597,4.493,6.723
		c2.72,1.127,5.849,0.505,7.931-1.577s2.704-5.211,1.578-7.931c-1.127-2.719-3.78-4.493-6.724-4.493
		C88.772,65.5,85.514,68.759,85.514,72.778 M96.431,72.778c0,1.472-0.886,2.799-2.246,3.361c-1.36,0.563-2.926,0.253-3.966-0.788
		c-1.041-1.04-1.353-2.606-0.789-3.967c0.563-1.359,1.89-2.246,3.362-2.246C94.802,69.139,96.431,70.769,96.431,72.778"/>
	<path clip-path="url(#SVGID_2_)" fill="#4C3931" d="M103.708,56.403H81.875c-3.015,0-5.459,2.443-5.459,5.458v21.834
		c0,3.014,2.444,5.458,5.459,5.458h21.833c3.016,0,5.458-2.444,5.458-5.458v-3.64c0-1.005-0.814-1.819-1.818-1.819
		s-1.82,0.814-1.82,1.819v3.64c0,1.004-0.815,1.818-1.819,1.818H81.875c-1.005,0-1.819-0.814-1.819-1.818V61.861
		c0-1.004,0.814-1.819,1.819-1.819h21.833c1.004,0,1.819,0.815,1.819,1.819v10.917c0,1.004,0.816,1.818,1.82,1.818
		s1.818-0.814,1.818-1.818V61.861C109.166,58.847,106.724,56.403,103.708,56.403"/>
	<path clip-path="url(#SVGID_2_)" fill="#4C3931" d="M63.681,38.208c0.572,0,1.112-0.27,1.456-0.727l5.458-7.278
		c0.603-0.804,0.439-1.945-0.363-2.548c-0.805-0.603-1.945-0.439-2.549,0.364l-5.458,7.277c-0.603,0.805-0.439,1.945,0.364,2.548
		C62.903,38.081,63.287,38.208,63.681,38.208"/>
	<path clip-path="url(#SVGID_2_)" fill="#4C3931" d="M67.683,44.759c0.345,0.457,0.885,0.727,1.456,0.727
		c0.394,0,0.777-0.128,1.093-0.363l7.277-5.459c0.803-0.603,0.966-1.743,0.363-2.548c-0.604-0.803-1.743-0.966-2.548-0.363
		l-7.277,5.458C67.244,42.814,67.08,43.955,67.683,44.759"/>
	<path clip-path="url(#SVGID_2_)" fill="#4C3931" d="M85.514,48.762c-0.088-0.488-0.37-0.918-0.782-1.193
		c-0.411-0.275-0.918-0.37-1.4-0.263l-9.097,1.82c-1.007,0.1-1.738,0.996-1.64,2.002c0.102,1.004,0.998,1.737,2.002,1.636h0.364
		l9.097-1.819c0.488-0.088,0.918-0.37,1.193-0.782S85.621,49.245,85.514,48.762"/>
	<path clip-path="url(#SVGID_2_)" fill="#4C3931" d="M27.292,38.209h21.833c1.004,0,1.819-0.815,1.819-1.82V7.278
		c0-1.004-0.815-1.819-1.819-1.819H27.292c-1.005,0-1.82,0.815-1.82,1.819v29.111C25.472,37.394,26.287,38.209,27.292,38.209
		 M29.111,9.098h18.194V34.57H29.111V9.098z"/>
	<path clip-path="url(#SVGID_2_)" fill="#4C3931" d="M41.847,12.736h-3.639c-1.004,0-1.819,0.815-1.819,1.819
		c0,1.005,0.815,1.82,1.819,1.82h3.639c1.004,0,1.819-0.815,1.819-1.82C43.666,13.551,42.851,12.736,41.847,12.736"/>
	<path clip-path="url(#SVGID_2_)" fill="#4C3931" d="M41.847,20.014h-7.278c-1.004,0-1.819,0.815-1.819,1.819
		c0,1.005,0.815,1.82,1.819,1.82h7.278c1.004,0,1.819-0.815,1.819-1.82C43.666,20.829,42.851,20.014,41.847,20.014"/>
	<path clip-path="url(#SVGID_2_)" fill="#4C3931" d="M41.847,27.292h-7.278c-1.004,0-1.819,0.815-1.819,1.819
		c0,1.005,0.815,1.82,1.819,1.82h7.278c1.004,0,1.819-0.815,1.819-1.82C43.666,28.107,42.851,27.292,41.847,27.292"/>
	<path clip-path="url(#SVGID_2_)" fill="#4C3931" d="M62.079,48.579c-0.503-0.874-1.618-1.175-2.493-0.673
		c-0.874,0.503-1.175,1.618-0.672,2.493l8.022,13.882L37.825,75.198h-0.126h-0.146l-4.731,2.729l-3.148,1.82
		c-0.836,0.483-1.831,0.615-2.765,0.364c-0.929-0.252-1.72-0.859-2.201-1.692l-3.639-6.296c-0.888-1.709-0.29-3.816,1.364-4.803
		l6.295-3.64l4.549,7.878c0.327,0.565,0.931,0.912,1.583,0.91c0.652,0.002,1.255-0.343,1.582-0.905
		c0.326-0.564,0.327-1.26,0.001-1.823l-4.694-8.115l22.833-18.831l0.746,1.291c0.241,0.421,0.641,0.727,1.106,0.853
		c0.468,0.127,0.967,0.062,1.387-0.179c0.419-0.241,0.727-0.64,0.853-1.107c0.127-0.467,0.062-0.966-0.181-1.386l-1.818-3.148
		c-0.27-0.461-0.729-0.78-1.254-0.873c-0.53-0.1-1.077,0.041-1.494,0.382L28.457,59.624l-7.751,4.475
		c-2.86,1.667-4.237,5.054-3.348,8.242l-1.82,1.038c-1.916,1.1-2.98,3.249-2.694,5.442c0.287,2.191,1.869,3.994,4.004,4.564
		c0.463,0.122,0.941,0.184,1.419,0.182c0.958-0.004,1.898-0.254,2.729-0.728l1.82-1.037c0.874,0.903,1.973,1.557,3.184,1.893
		c0.622,0.174,1.265,0.259,1.911,0.255c1.279,0.003,2.536-0.337,3.639-0.982l1.583-0.91l3.639,6.313
		c1.506,2.603,4.833,3.498,7.441,2.001c1.255-0.722,2.172-1.915,2.547-3.314c0.376-1.399,0.179-2.89-0.546-4.145l-3.311-5.77
		l27.292-10.241c0.501-0.189,0.893-0.588,1.073-1.093c0.179-0.498,0.133-1.05-0.126-1.511L62.079,48.579z M19.104,79.673
		c-0.418,0.243-0.916,0.309-1.383,0.184c-0.466-0.121-0.865-0.423-1.11-0.839c-0.242-0.418-0.307-0.915-0.182-1.382
		c0.126-0.469,0.434-0.868,0.855-1.109l1.583-0.91l1.819,3.147L19.104,79.673z M43.048,84.768c0.242,0.419,0.307,0.917,0.181,1.385
		c-0.129,0.462-0.437,0.854-0.855,1.09c-0.865,0.498-1.968,0.205-2.475-0.655l-3.638-6.313l3.02-1.729h0.146L43.048,84.768z"/>
</g>
</svg>
