<?xml version="1.0" encoding="utf-8"?>
<!-- Generator: Adobe Illustrator 16.0.0, SVG Export Plug-In . SVG Version: 6.00 Build 0)  -->
<!DOCTYPE svg PUBLIC "-//W3C//DTD SVG 1.1//EN" "http://www.w3.org/Graphics/SVG/1.1/DTD/svg11.dtd">
<svg version="1.1" id="Layer_1" xmlns="http://www.w3.org/2000/svg" xmlns:xlink="http://www.w3.org/1999/xlink" x="0px" y="0px"
	 width="136.826px" height="120px" viewBox="0 0 136.826 120" enable-background="new 0 0 136.826 120" xml:space="preserve">
<polygon fill="#F78D1E" points="52.911,6.111 26.159,50.213 26.159,55.5 21.659,60.451 26.659,69.201 36.394,78.454 42.659,71 
	50.909,76.951 66.409,87.951 72,85.451 75.909,80.451 60,63.859 88.909,48.054 89.987,43.701 80.159,34.748 82,24.53 77.409,16.946 
	70,16.213 64.409,16.946 "/>
<g>
	<defs>
		<rect id="SVGID_1_" width="136.826" height="120"/>
	</defs>
	<clipPath id="SVGID_2_">
		<use xlink:href="#SVGID_1_"  overflow="visible"/>
	</clipPath>
	<path clip-path="url(#SVGID_2_)" fill="#4C3931" d="M91.894,46.891c0.396-2.151-0.286-4.359-1.829-5.909l-7.351-7.388
		c2.579-5.213,1.572-11.488-2.509-15.632c-4.104-4.101-10.37-5.12-15.562-2.532l-7.34-7.377c-1.533-1.55-3.733-2.241-5.876-1.846
		s-3.953,1.824-4.833,3.817c-4.151,9.346-12.508,26.664-21.842,37.638c-1.823,2.112-2.129,5.138-0.768,7.573l-2.05,2.061
		c-2.575,2.596-2.575,6.781,0,9.377l9.781,9.835c1.236,1.249,2.922,1.951,4.679,1.946h0.002c1.758,0.005,3.443-0.697,4.678-1.947
		l1.843-1.853l1.843,1.853c0.013,0.014,0.032,0.019,0.046,0.031c0.159,0.15,0.342,0.273,0.541,0.364
		c0.059,0.026,0.118,0.043,0.179,0.064c0.078,0.034,0.159,0.064,0.242,0.088c0.066,0.014,6.582,1.515,17.091,11.218
		c1.205,1.117,2.788,1.738,4.432,1.737c1.766-0.002,3.458-0.71,4.699-1.967l3.293-3.31c1.252-1.262,1.948-2.973,1.932-4.749
		c-0.016-1.778-0.743-3.476-2.018-4.714c-3.795-3.755-7.816-7.272-12.042-10.534C71.188,59.877,79.52,55.53,88.1,51.721
		C90.08,50.831,91.498,49.026,91.894,46.891 M67.656,18.458c3.417-1.119,7.173-0.22,9.713,2.325
		c2.538,2.568,3.433,6.337,2.321,9.771l-6.258-6.289L67.656,18.458z M38.238,73.687c-0.486,0.492-1.15,0.77-1.842,0.768h-0.002
		c-0.692,0.002-1.356-0.275-1.843-0.768l-9.782-9.835c-1.025-1.033-1.025-2.7,0-3.734l1.842-1.851l13.485,13.552L38.238,73.687z
		 M59.539,67.055c4.565,3.367,8.87,7.075,12.877,11.091c0.505,0.494,0.793,1.17,0.799,1.877s-0.271,1.387-0.768,1.89l-3.293,3.31
		c-0.966,0.999-2.553,1.05-3.58,0.111c-4.596-4.482-9.883-8.199-15.659-11.003c0.234-0.208,0.482-0.413,0.722-0.62
		C53.463,71.31,56.436,69.086,59.539,67.055z M87.959,46.163c-0.148,0.846-0.71,1.562-1.496,1.908
		c-11.087,4.86-21.718,10.7-31.765,17.452c-0.197,0.138-0.392,0.275-0.586,0.414c-2.231,1.591-4.343,3.228-6.272,4.9
		c-0.24,0.208-0.467,0.413-0.699,0.62c-0.31,0.277-0.636,0.552-0.936,0.831l-18.31-18.407v-0.001
		c-0.979-0.996-1.021-2.58-0.096-3.626c9.66-11.359,18.213-29.064,22.451-38.608c0.341-0.788,1.053-1.353,1.898-1.505
		c0.159-0.03,0.32-0.044,0.481-0.044c0.692,0.001,1.354,0.28,1.838,0.776l23.497,23.617l0.872,0.877l8.393,8.436
		C87.85,44.419,88.124,45.304,87.959,46.163z"/>
	<path clip-path="url(#SVGID_2_)" fill="#4C3931" d="M89.414,11.414l4-4c0.769-0.783,0.763-2.039-0.013-2.815
		c-0.776-0.776-2.032-0.782-2.815-0.013l-4,4c-0.513,0.504-0.716,1.244-0.532,1.939c0.185,0.694,0.728,1.237,1.421,1.421
		C88.17,12.13,88.91,11.927,89.414,11.414"/>
	<path clip-path="url(#SVGID_2_)" fill="#4C3931" d="M72,6V2c0-1.105-0.895-2-2-2s-2,0.895-2,2v4c0,1.105,0.895,2,2,2S72,7.105,72,6
		"/>
	<path clip-path="url(#SVGID_2_)" fill="#4C3931" d="M116,98V28c-0.004-3.312-2.688-5.996-6-6H90c-1.105,0-2,0.895-2,2s0.895,2,2,2
		h20c1.104,0.001,1.999,0.896,2,2v70h-4V34c-0.003-2.208-1.792-3.998-4-4H90c-1.105,0-2,0.895-2,2s0.895,2,2,2h14v64H16V34h12
		c1.105,0,2-0.895,2-2s-0.895-2-2-2H16c-2.208,0.002-3.997,1.792-4,4v64H8V28c0.001-1.104,0.896-1.999,2-2h24c1.105,0,2-0.895,2-2
		s-0.895-2-2-2H10c-3.312,0.004-5.996,2.688-6,6v70c-2.208,0.003-3.998,1.792-4,4v8c0.006,5.52,4.48,9.994,10,10h100
		c5.52-0.006,9.994-4.48,10-10v-8C119.997,99.792,118.208,98.003,116,98 M76.764,102l-1.447,2.895
		c-0.338,0.68-1.031,1.107-1.789,1.105H46.473c-0.759,0.002-1.452-0.426-1.789-1.105L43.236,102H76.764z M110,116H10
		c-3.312-0.004-5.996-2.688-6-6h22c1.105,0,2-0.895,2-2s-0.895-2-2-2H4v-4h34.764l2.341,4.684c1.011,2.038,3.093,3.324,5.368,3.316
		h27.054c2.274,0.008,4.356-1.278,5.367-3.316L81.236,102H116v4H94c-1.105,0-2,0.895-2,2s0.895,2,2,2h22
		C115.996,113.312,113.312,115.996,110,116"/>
	<path clip-path="url(#SVGID_2_)" fill="#4C3931" d="M36,106h-2c-1.105,0-2,0.895-2,2s0.895,2,2,2h2c1.105,0,2-0.895,2-2
		S37.105,106,36,106"/>
	<path clip-path="url(#SVGID_2_)" fill="#4C3931" d="M86,106h-2c-1.105,0-2,0.895-2,2s0.895,2,2,2h2c1.105,0,2-0.895,2-2
		S87.105,106,86,106"/>
	<path clip-path="url(#SVGID_2_)" fill="#F4DC4D" d="M114.948,46.989c-4.68-2.702-10.654-1.101-13.356,3.579L84.82,79.617
		c-4.328,7.497,2.607,16.582,10.998,14.333c2.523-0.676,4.631-2.293,5.938-4.555l16.771-29.049
		C121.223,55.677,119.617,49.685,114.948,46.989"/>
	<path clip-path="url(#SVGID_2_)" fill="#E2C539" d="M107.689,79.117c11.842-20.512,10.984-18.986,11.265-19.6l-5.167-8.948
		c-1.314-2.278-3.462-3.935-6.101-4.595c-2.677,0.671-4.802,2.355-6.095,4.594l-5.167,8.949
		C96.73,60.187,95.968,58.815,107.689,79.117"/>
	<path clip-path="url(#SVGID_2_)" fill="#E2C539" d="M89.945,70.739l-5.125,8.879c-3.771,6.531,1.008,14.67,8.451,14.67
		c3.345,0,6.649-1.716,8.484-4.894l4.312-7.47C103.872,74.721,97.028,70.29,89.945,70.739"/>
	<path clip-path="url(#SVGID_2_)" fill="#A8D381" d="M102.732,81.976c-1.398-5.219-6.754-8.313-11.976-6.914
		c-8.393,2.249-9.851,13.586-2.357,17.912C95.874,97.29,104.993,90.415,102.732,81.976"/>
	<path clip-path="url(#SVGID_2_)" fill="#8BBDE6" d="M135.507,79.617l-16.771-29.049c-1.306-2.262-3.415-3.88-5.937-4.556
		c-8.395-2.249-15.325,6.841-10.999,14.334l16.771,29.049c2.701,4.678,8.676,6.281,13.356,3.579
		C136.598,90.278,138.203,84.286,135.507,79.617"/>
	<path clip-path="url(#SVGID_2_)" fill="#A8D381" d="M102.732,81.976c-1.398-5.219-6.754-8.313-11.976-6.914
		c-8.393,2.249-9.851,13.586-2.357,17.912C95.874,97.29,104.993,90.415,102.732,81.976"/>
	<path clip-path="url(#SVGID_2_)" fill="#4C3931" d="M135.507,79.618l-16.771-29.049c-3.781-6.549-13.379-6.521-17.144,0
		L84.82,79.618c-3.771,6.531,1.007,14.67,8.452,14.67c3.344,0,6.647-1.716,8.483-4.894l8.407-14.563l8.408,14.563
		c1.832,3.173,5.134,4.894,8.484,4.894C134.495,94.288,139.28,86.152,135.507,79.618 M98.787,87.682
		c-1.479,2.564-4.488,3.725-7.261,2.928c-3.979-1.155-5.787-5.729-3.738-9.278c1.755-3.039,5.635-4.079,8.676-2.324
		C99.502,80.762,100.542,84.642,98.787,87.682 M102.503,81.246c-1.596-4.534-6.269-7.236-10.998-6.352l9.469-16.401
		c0.422,1.291,0.125,0.637,7.211,12.911L102.503,81.246z M130.215,90.006c-3.039,1.755-6.921,0.716-8.676-2.324l-16.771-29.049
		c-3.199-5.544,2.97-11.85,8.467-8.675c2.057,1.187,1.492,0.52,19.304,31.374C134.289,84.363,133.247,88.255,130.215,90.006"/>
</g>
</svg>
