<?xml version="1.0" encoding="utf-8"?>
<!-- Generator: Adobe Illustrator 16.0.0, SVG Export Plug-In . SVG Version: 6.00 Build 0)  -->
<!DOCTYPE svg PUBLIC "-//W3C//DTD SVG 1.1//EN" "http://www.w3.org/Graphics/SVG/1.1/DTD/svg11.dtd">
<svg version="1.1" id="Layer_1" xmlns="http://www.w3.org/2000/svg" xmlns:xlink="http://www.w3.org/1999/xlink" x="0px" y="0px"
	 width="124.763px" height="100.167px" viewBox="0 0 124.763 100.167" enable-background="new 0 0 124.763 100.167"
	 xml:space="preserve">
<g>
	<defs>
		<rect id="SVGID_1_" width="124.763" height="100.167"/>
	</defs>
	<clipPath id="SVGID_2_">
		<use xlink:href="#SVGID_1_"  overflow="visible"/>
	</clipPath>
	<path clip-path="url(#SVGID_2_)" fill="#F78D1E" d="M63.68,57.79c0,9.319-7.555,16.875-16.875,16.875
		c-9.32,0-16.875-7.556-16.875-16.875c0-9.32,7.555-16.875,16.875-16.875C56.125,40.915,63.68,48.47,63.68,57.79"/>
	<path clip-path="url(#SVGID_2_)" fill="#4C3931" d="M98.69,0H1.48C0.663,0,0,0.662,0,1.479v82.258c0,0.815,0.663,1.479,1.48,1.479
		h11.422l-5.934,5.936c-2.06,2.064-2.06,5.407,0,7.471c2.066,2.061,5.407,2.061,7.472,0l13.406-13.406H98.69
		c0.817,0,1.479-0.663,1.479-1.479V1.479C100.17,0.662,99.508,0,98.69,0 M2.959,2.958h94.253v11.996H2.959V2.958z M12.348,96.536
		c-0.913,0.882-2.365,0.871-3.263-0.027c-0.897-0.897-0.909-2.35-0.025-3.262l16.726-16.726l3.289,3.286L12.348,96.536z
		 M30.805,82.258l1.405-1.406c0.578-0.577,0.578-1.515,0-2.092l-1.641-1.642l3.595-3.6c7.484,6.359,18.652,5.682,25.31-1.538
		c6.658-7.221,6.433-18.407-0.513-25.351c-6.944-6.944-18.131-7.171-25.351-0.513c-7.219,6.658-7.898,17.826-1.537,25.31
		l-3.596,3.601l-1.646-1.646c-0.577-0.579-1.514-0.579-2.092,0l-8.876,8.875H2.959V17.913h94.253v64.345H30.805z M35.157,70.434
		c-4.389-4.389-5.702-10.989-3.326-16.725c2.375-5.734,7.971-9.473,14.177-9.473c6.207,0,11.803,3.739,14.178,9.473
		c2.375,5.735,1.062,12.336-3.326,16.725C50.862,76.416,41.155,76.416,35.157,70.434"/>
	<path clip-path="url(#SVGID_2_)" fill="#4C3931" d="M85.593,4.945c-1.625,0-3.089,0.978-3.709,2.479
		c-0.622,1.5-0.279,3.227,0.869,4.375c1.149,1.149,2.876,1.492,4.377,0.871c1.5-0.622,2.478-2.086,2.478-3.71
		C89.604,6.744,87.81,4.947,85.593,4.945 M85.593,10.017c-0.94,0-1.413-1.138-0.748-1.804C85.512,7.547,86.65,8.02,86.65,8.96
		C86.648,9.544,86.176,10.016,85.593,10.017"/>
	<path clip-path="url(#SVGID_2_)" fill="#4C3931" d="M73.13,4.945c-1.624,0-3.087,0.978-3.709,2.479
		c-0.622,1.5-0.279,3.227,0.87,4.375c1.147,1.149,2.875,1.492,4.376,0.871c1.5-0.622,2.478-2.086,2.478-3.71
		C77.143,6.744,75.347,4.947,73.13,4.945 M73.13,10.017c-0.941,0-1.412-1.138-0.747-1.804c0.666-0.666,1.804-0.194,1.804,0.747
		C74.187,9.544,73.713,10.017,73.13,10.017"/>
	<path clip-path="url(#SVGID_2_)" fill="#4C3931" d="M60.667,4.945c-1.625,0-3.089,0.978-3.709,2.479
		c-0.622,1.5-0.279,3.227,0.869,4.375c1.149,1.149,2.876,1.492,4.376,0.871c1.501-0.622,2.479-2.086,2.479-3.71
		C64.679,6.744,62.884,4.947,60.667,4.945 M60.667,10.017c-0.941,0-1.413-1.138-0.748-1.804c0.667-0.666,1.805-0.194,1.805,0.747
		C61.723,9.544,61.25,10.016,60.667,10.017"/>
	<path clip-path="url(#SVGID_2_)" fill="#4C3931" d="M83.736,23.821H16.434c-0.816,0-1.479,0.662-1.479,1.479v7.608
		c0.001,0.817,0.663,1.479,1.479,1.479h67.302c0.816,0,1.478-0.662,1.479-1.479V25.3C85.215,24.483,84.553,23.821,83.736,23.821
		 M82.257,31.429H17.914V26.78h64.343V31.429z"/>
	<path clip-path="url(#SVGID_2_)" fill="#4C3931" d="M56.21,60.753c-0.092,0.812,0.491,1.546,1.302,1.638
		c0.056,0.005,0.114,0.009,0.17,0.009c0.751,0,1.383-0.564,1.468-1.312c0.275-2.406-0.113-4.843-1.124-7.043
		c-0.339-0.746-1.219-1.074-1.963-0.731c-0.745,0.342-1.069,1.224-0.725,1.967C56.123,56.99,56.425,58.884,56.21,60.753"/>
	<path clip-path="url(#SVGID_2_)" fill="#F4DC4D" d="M102.885,30.184c-4.68-2.702-10.653-1.101-13.356,3.579L72.757,62.812
		c-4.328,7.497,2.607,16.582,10.998,14.333c2.523-0.676,4.631-2.293,5.938-4.555l16.771-29.049
		C109.159,38.872,107.554,32.88,102.885,30.184"/>
	<path clip-path="url(#SVGID_2_)" fill="#E2C539" d="M95.626,62.313c11.842-20.512,10.984-18.987,11.265-19.6l-5.167-8.948
		c-1.314-2.278-3.462-3.935-6.101-4.595c-2.677,0.671-4.802,2.355-6.095,4.594l-5.167,8.949
		C84.667,43.381,83.904,42.01,95.626,62.313"/>
	<path clip-path="url(#SVGID_2_)" fill="#E2C539" d="M77.883,53.935l-5.125,8.878c-3.772,6.532,1.007,14.67,8.451,14.67
		c3.344,0,6.648-1.715,8.483-4.893l4.313-7.471C91.809,57.915,84.966,53.484,77.883,53.935"/>
	<path clip-path="url(#SVGID_2_)" fill="#A8D381" d="M90.669,65.17c-1.398-5.219-6.754-8.313-11.975-6.913
		c-8.394,2.249-9.852,13.586-2.358,17.911C83.811,80.484,92.93,73.609,90.669,65.17"/>
	<path clip-path="url(#SVGID_2_)" fill="#8BBDE6" d="M123.443,62.812l-16.771-29.048c-1.307-2.262-3.415-3.88-5.938-4.556
		c-8.394-2.249-15.325,6.841-10.999,14.334l16.772,29.049c2.701,4.678,8.675,6.282,13.355,3.579
		C124.534,73.473,126.14,67.481,123.443,62.812"/>
	<path clip-path="url(#SVGID_2_)" fill="#A8D381" d="M90.669,65.17c-1.398-5.219-6.754-8.313-11.975-6.913
		c-8.394,2.249-9.852,13.586-2.358,17.911C83.811,80.484,92.93,73.609,90.669,65.17"/>
	<path clip-path="url(#SVGID_2_)" fill="#4C3931" d="M123.443,62.813l-16.771-29.049c-3.781-6.549-13.379-6.521-17.144,0
		L72.757,62.813c-3.771,6.532,1.007,14.67,8.452,14.67c3.344,0,6.648-1.715,8.483-4.893L98.1,58.026l8.408,14.563
		c1.832,3.173,5.135,4.893,8.484,4.893C122.432,77.482,127.217,69.348,123.443,62.813 M86.724,70.876
		c-1.479,2.564-4.488,3.726-7.261,2.929c-3.979-1.156-5.787-5.73-3.738-9.279c1.756-3.039,5.635-4.079,8.676-2.324
		C87.439,63.956,88.479,67.836,86.724,70.876 M90.44,64.44c-1.597-4.534-6.27-7.236-10.999-6.351l9.469-16.401
		c0.422,1.291,0.125,0.637,7.211,12.911L90.44,64.44z M118.151,73.2c-3.039,1.755-6.92,0.716-8.675-2.324L92.704,41.827
		c-3.199-5.544,2.97-11.85,8.467-8.675c2.059,1.187,1.492,0.52,19.304,31.373C122.227,67.559,121.185,71.449,118.151,73.2"/>
</g>
</svg>
