<?xml version="1.0" encoding="utf-8"?>
<!-- Generator: Adobe Illustrator 16.0.0, SVG Export Plug-In . SVG Version: 6.00 Build 0)  -->
<!DOCTYPE svg PUBLIC "-//W3C//DTD SVG 1.1//EN" "http://www.w3.org/Graphics/SVG/1.1/DTD/svg11.dtd">
<svg version="1.1" id="Layer_1" xmlns="http://www.w3.org/2000/svg" xmlns:xlink="http://www.w3.org/1999/xlink" x="0px" y="0px"
	 width="102.852px" height="109.587px" viewBox="0 0 102.852 109.587" enable-background="new 0 0 102.852 109.587"
	 xml:space="preserve">
<g>
	<defs>
		<rect id="SVGID_1_" width="102.852" height="109.587"/>
	</defs>
	<clipPath id="SVGID_2_">
		<use xlink:href="#SVGID_1_"  overflow="visible"/>
	</clipPath>
	<path clip-path="url(#SVGID_2_)" fill="#F78D1E" d="M53.687,80.104c-1.296-1.067-3.021-1.488-4.751-1.068
		c-2.217,0.538-4.455,2.611-4.455,6.027c0,2.126,0.777,3.972,2.373,5.644c1.304,1.364,3.186,2.662,6.102,4.207
		c0.234,0.125,0.492,0.188,0.752,0.188c0.258,0,0.516-0.063,0.751-0.188c5.086-2.695,8.474-5.403,8.474-9.851
		c0-3.435-2.317-5.486-4.613-5.995C56.594,78.685,54.921,79.092,53.687,80.104"/>
	<path clip-path="url(#SVGID_2_)" fill="#F78D1E" d="M78.579,13.003c-2.039-0.521-4.116,1.09-4.116,3.196
		c0,2.302-0.838,4.52-2.361,6.244l-4.423,5.007c-0.287-0.441-0.782-0.732-1.345-0.732h-8.636c-0.887,0-1.605,0.719-1.605,1.607
		v19.429c0,0.886,0.719,1.605,1.605,1.605h8.636c0.648,0,1.206-0.386,1.46-0.938c1.748,1.067,3.773,1.645,5.835,1.645h15.262
		c2.332,0,4.256-2.023,4.146-4.35c-0.047-1.03,0.005-14.861,0.005-15.169c0-2.288-1.862-4.151-4.146-4.151l-7.936-0.023l0.329-0.778
		c1.502-3.557,1.254-7.68-0.661-11.032C80.18,13.78,79.453,13.227,78.579,13.003S79.453,13.227,78.579,13.003
		C76.541,12.482,79.453,13.227,78.579,13.003"/>
	<path clip-path="url(#SVGID_2_)" fill="#4C3931" d="M90.815,0h-4.712c-2.069,0-2.069,3.211,0,3.211h4.712
		c4.866,0,8.825,3.945,8.825,8.793v37.155c0,4.849-3.959,8.793-8.825,8.793h-5.344c-0.353,0-0.694,0.117-0.975,0.331l-9.807,7.501
		v-6.227c0-0.886-0.718-1.605-1.604-1.605h-19.54c-1.601,0-3.138-0.422-4.495-1.226V38.705c0-3.377-1.719-6.359-4.33-8.123V12.004
		c0-4.848,3.959-8.793,8.825-8.793h22.497c2.072,0,2.072-3.211,0-3.211H53.546C46.91,0,41.51,5.384,41.51,12.004V29.17
		c-0.735-0.175-1.501-0.271-2.289-0.271H9.83c-5.42,0-9.83,4.399-9.83,9.806v3.466c0,2.071,3.211,2.071,3.211,0v-3.466
		c0-3.636,2.969-6.595,6.619-6.595h29.391c3.65,0,6.62,2.959,6.62,6.595v18.661c-0.019,0.142-0.019,0.285,0,0.426v10.214
		c0,0.201-0.013,0.402-0.031,0.602H42.5c-3.649,0-6.69,2.634-7.321,6.095c-0.146,0.055-0.287,0.132-0.416,0.231l-7.181,5.546v-4.274
		c0-0.886-0.719-1.606-1.606-1.606H9.83c-3.65,0-6.619-2.958-6.619-6.593V51.804c0-2.071-3.211-2.071-3.211,0v16.202
		c0,5.406,4.41,9.805,9.83,9.805h14.541v5.937c0,1.288,1.564,2.06,2.587,1.271l8.1-6.254v18.063c0,4.094,3.338,7.424,7.442,7.424
		h9.852v3.747c0,1.287,1.564,2.061,2.586,1.271l6.498-5.018h1.92c4.105,0,7.443-3.33,7.443-7.424v-2.852
		c0-2.069-3.211-2.069-3.211,0v2.852c0,2.323-1.898,4.214-4.232,4.214h-2.467c-0.355,0-0.7,0.118-0.98,0.334l-4.346,3.355v-2.085
		c0-0.886-0.719-1.604-1.605-1.604H42.5c-2.334,0-4.232-1.891-4.232-4.214V76.033c0-2.324,1.898-4.214,4.232-4.214h20.855
		c2.333,0,4.232,1.891,4.232,4.214v7.882c0,2.071,3.211,2.071,3.211,0v-7.882c0-4.095-3.338-7.424-7.443-7.424H49.033
		c0.013-0.201,0.018-8.311,0.018-8.311c1.416,0.569,2.935,0.865,4.495,0.865h17.934v7.868c0,1.286,1.559,2.059,2.581,1.275
		l11.955-9.144h4.8c6.637,0,12.036-5.385,12.036-12.004V12.004C102.851,5.384,97.452,0,90.815,0"/>
	<path clip-path="url(#SVGID_2_)" fill="#4C3931" d="M76.192,11.862c-2.038-0.52-4.115,1.091-4.115,3.197
		c0,2.302-0.839,4.519-2.361,6.243l-4.424,5.007c-0.286-0.44-0.781-0.731-1.344-0.731h-8.637c-0.887,0-1.605,0.719-1.605,1.606
		v19.429c0,0.886,0.719,1.606,1.605,1.606h8.637c0.647,0,1.206-0.386,1.459-0.939c1.748,1.068,3.774,1.645,5.836,1.645h15.261
		c2.332,0,4.256-2.023,4.146-4.35c-0.048-1.03,0.004-14.861,0.004-15.168c0-2.289-1.861-4.152-4.146-4.152l-7.937-0.023l0.329-0.778
		c1.502-3.556,1.254-7.68-0.661-11.032C77.793,12.639,77.066,12.086,76.192,11.862C75.318,11.639,77.066,12.086,76.192,11.862
		C74.155,11.342,77.066,12.086,76.192,11.862 M62.342,45.008h-5.425V28.789h5.425V45.008z M86.504,28.467
		c0.519,0,0.94,0.422,0.94,0.94c0,0.305-0.004,1.135-0.008,2.258c-0.023,6.206-0.039,12.084,0.007,13.062
		c0.016,0.352-0.155,0.588-0.259,0.696c-0.18,0.188-0.421,0.292-0.681,0.292H71.243c-1.82,0-3.6-0.631-5.015-1.776l-0.676-0.547
		V30.863l6.57-7.435c2.041-2.313,3.164-5.285,3.164-8.369c0-0.091,0.125-0.115,0.165-0.044c1.423,2.488,1.604,5.549,0.491,8.189
		l-1.268,3.001c-0.209,0.495-0.156,1.063,0.141,1.511c0.296,0.448,0.797,0.718,1.334,0.72L86.504,28.467z"/>
	<path clip-path="url(#SVGID_2_)" fill="#4C3931" d="M13.747,55.765c-0.887,0-1.605,0.719-1.605,1.604
		c0,0.887,0.718,1.606,1.605,1.606h4.733l-0.885,5.347c-0.144,0.875,0.447,1.701,1.323,1.846c0.089,0.016,0.177,0.022,0.264,0.022
		c0.771,0,1.451-0.559,1.582-1.344l0.971-5.871h3.872l-0.884,5.347c-0.145,0.875,0.447,1.701,1.322,1.846
		c0.089,0.016,0.177,0.023,0.263,0.023c0.772,0,1.453-0.56,1.583-1.345l0.971-5.87h6.442c0.887,0,1.605-0.72,1.605-1.607
		c0-0.886-0.718-1.604-1.605-1.604h-5.911l0.647-3.917h5.264c0.887,0,1.605-0.719,1.605-1.605c0-0.888-0.718-1.607-1.605-1.607
		h-4.732l0.883-5.346c0.145-0.875-0.448-1.701-1.322-1.846c-0.876-0.145-1.701,0.447-1.846,1.322l-0.971,5.87h-3.872l0.884-5.346
		c0.145-0.875-0.448-1.701-1.323-1.846c-0.877-0.145-1.701,0.447-1.846,1.322l-0.969,5.87h-6.443c-0.887,0-1.605,0.719-1.605,1.606
		s0.718,1.606,1.605,1.606h5.911l-0.648,3.917H13.747z M22.913,51.848h3.873l-0.648,3.917h-3.873L22.913,51.848z"/>
	<path clip-path="url(#SVGID_2_)" fill="#4C3931" d="M52.908,80.104c-1.297-1.066-3.021-1.489-4.751-1.068
		c-2.218,0.538-4.455,2.61-4.455,6.027c0,2.126,0.777,3.973,2.372,5.644c1.304,1.364,3.186,2.662,6.102,4.207
		c0.235,0.125,0.493,0.187,0.753,0.187c0.257,0,0.516-0.062,0.751-0.187c5.086-2.695,8.474-5.403,8.474-9.851
		c0-3.435-2.317-5.486-4.613-5.995C55.815,78.684,54.143,79.091,52.908,80.104 M58.941,85.063c0,2.399-1.591,4.173-6.014,6.607
		c-4.422-2.435-6.014-4.208-6.014-6.607c0-1.785,1.033-2.672,2.001-2.907c0.177-0.044,0.369-0.067,0.565-0.067
		c0.728,0,1.526,0.336,2.021,1.293c0.281,0.544,0.849,0.882,1.458,0.868c0.612-0.013,1.164-0.371,1.422-0.927
		c0.521-1.113,1.614-1.309,2.464-1.119C57.857,82.427,58.941,83.296,58.941,85.063"/>
</g>
</svg>
