<?xml version="1.0" encoding="utf-8"?>
<!-- Generator: Adobe Illustrator 16.0.0, SVG Export Plug-In . SVG Version: 6.00 Build 0)  -->
<!DOCTYPE svg PUBLIC "-//W3C//DTD SVG 1.1//EN" "http://www.w3.org/Graphics/SVG/1.1/DTD/svg11.dtd">
<svg version="1.1" id="Layer_1" xmlns="http://www.w3.org/2000/svg" xmlns:xlink="http://www.w3.org/1999/xlink" x="0px" y="0px"
	 width="92px" height="91.473px" viewBox="0 0 92 91.473" enable-background="new 0 0 92 91.473" xml:space="preserve">
<g>
	<defs>
		<rect id="SVGID_1_" width="92" height="91.473"/>
	</defs>
	<clipPath id="SVGID_2_">
		<use xlink:href="#SVGID_1_"  overflow="visible"/>
	</clipPath>
	<path clip-path="url(#SVGID_2_)" fill="#F78D1E" d="M19.387,31.167c-2.685,1.55-4.173,4.566-3.768,7.641
		c0.405,3.074,2.622,5.602,5.618,6.404c0.65,0.175,1.32,0.263,1.992,0.264c1.343-0.001,2.661-0.356,3.822-1.03l4.923-2.843
		L51.566,61.74c1.803,1.786,4.707,1.786,6.511,0l1.687-1.686c0.967-0.959,1.456-2.298,1.337-3.655
		c-0.12-1.355-0.839-2.589-1.958-3.361l-9.211-6.978c-0.839-0.56-1.559-1.281-2.117-2.12l-2.85-4.266l19.544-2.815
		c0.192-0.028,0.38-0.092,0.548-0.191c3.667-2.117,4.923-6.805,2.806-10.473L55.595,4.951c-2.116-3.668-6.805-4.924-10.473-2.807
		c-0.167,0.098-0.316,0.227-0.436,0.381L24.445,28.248L19.387,31.167z"/>
	<path clip-path="url(#SVGID_2_)" fill="#4C3931" d="M7.667,82.273V80.74H4.6v1.533c0,2.54,2.06,4.601,4.6,4.601h1.534v-3.067H9.2
		C8.354,83.806,7.667,83.12,7.667,82.273"/>
	<rect x="4.6" y="76.14" clip-path="url(#SVGID_2_)" fill="#4C3931" width="3.067" height="3.067"/>
	<rect x="12.267" y="83.806" clip-path="url(#SVGID_2_)" fill="#4C3931" width="3.067" height="3.067"/>
	<path clip-path="url(#SVGID_2_)" fill="#4C3931" d="M91.443,45.838l0.008-0.008l-8.65-7.237v-25.32c0-2.541-2.061-4.6-4.601-4.6
		v3.066c0.846,0,1.533,0.687,1.533,1.534v38.933L46,74.306l-33.734-22.1V13.273c0-0.847,0.687-1.534,1.534-1.534h18.4V8.673H13.8
		c-2.541,0-4.6,2.059-4.6,4.6v25.32l-8.651,7.237v0.008C0.202,46.127,0.002,46.555,0,47.006v36.8
		c0.005,4.232,3.435,7.662,7.666,7.667h76.667c4.232-0.005,7.662-3.435,7.667-7.667v-36.8
		C91.996,46.554,91.792,46.126,91.443,45.838 M82.801,42.592l5.098,4.26l-5.098,3.345V42.592z M9.2,50.197l-5.098-3.345l5.098-4.26
		V50.197z M88.934,83.806c0,2.54-2.061,4.601-4.601,4.601H7.667c-2.54,0-4.6-2.061-4.6-4.601V49.844l42.093,27.577
		c0.512,0.338,1.175,0.338,1.688,0l42.087-27.577V83.806z"/>
	<path clip-path="url(#SVGID_2_)" fill="#4C3931" d="M19.388,31.167c-2.686,1.55-4.173,4.566-3.769,7.64
		c0.406,3.075,2.623,5.603,5.619,6.405c0.649,0.175,1.319,0.263,1.992,0.264c1.343-0.001,2.66-0.357,3.821-1.031l4.924-2.843
		L51.566,61.74c1.803,1.785,4.706,1.785,6.51,0l1.687-1.687c0.968-0.958,1.458-2.298,1.337-3.654
		c-0.12-1.355-0.837-2.589-1.957-3.361l-9.211-6.977c-0.839-0.56-1.559-1.281-2.118-2.121l-2.85-4.265l19.545-2.815
		c0.192-0.028,0.38-0.092,0.547-0.191c3.668-2.117,4.924-6.805,2.806-10.473L55.596,4.95c-2.118-3.667-6.805-4.923-10.473-2.806
		c-0.168,0.098-0.317,0.227-0.436,0.38L24.446,28.249L19.388,31.167z M25.521,41.791c-2.201,1.27-5.016,0.515-6.286-1.687
		c-1.271-2.202-0.515-5.016,1.686-6.287l3.987-2.3l4.6,7.974L25.521,41.791z M45.265,45.646c0.761,1.151,1.741,2.14,2.884,2.912
		l9.214,6.979c0.383,0.255,0.632,0.669,0.678,1.127c0.048,0.456-0.117,0.909-0.448,1.227l-1.687,1.687
		c-0.595,0.598-1.561,0.604-2.162,0.012L35.681,41.013l5.919-0.855L45.265,45.646z M50.147,4.339
		c1.18,0.314,2.187,1.087,2.792,2.147l12.268,21.246c0.982,1.683,0.784,3.805-0.495,5.275L48.126,4.275
		C48.796,4.146,49.486,4.168,50.147,4.339 M45.693,6.199l16.135,27.948l-29.421,4.237l-5.095-8.823L45.693,6.199z"/>
	
		<rect x="63.766" y="10.205" transform="matrix(-0.866 0.5 -0.5 -0.866 133.4403 -12.279)" clip-path="url(#SVGID_2_)" fill="#4C3931" width="9.199" height="3.067"/>
	
		<rect x="59.024" y="3.217" transform="matrix(-0.5 0.866 -0.866 -0.5 99.549 -47.9743)" clip-path="url(#SVGID_2_)" fill="#4C3931" width="9.199" height="3.066"/>
	<rect x="67.452" y="17.818" clip-path="url(#SVGID_2_)" fill="#4C3931" width="9.2" height="3.067"/>
</g>
</svg>
