<?xml version="1.0" encoding="utf-8"?>
<!-- Generator: Adobe Illustrator 16.0.0, SVG Export Plug-In . SVG Version: 6.00 Build 0)  -->
<!DOCTYPE svg PUBLIC "-//W3C//DTD SVG 1.1//EN" "http://www.w3.org/Graphics/SVG/1.1/DTD/svg11.dtd">
<svg version="1.1" id="Layer_1" xmlns="http://www.w3.org/2000/svg" xmlns:xlink="http://www.w3.org/1999/xlink" x="0px" y="0px"
	 width="89.678px" height="89.74px" viewBox="0 0 89.678 89.74" enable-background="new 0 0 89.678 89.74" xml:space="preserve">
<g>
	<defs>
		<rect id="SVGID_1_" width="89.677" height="89.74"/>
	</defs>
	<clipPath id="SVGID_2_">
		<use xlink:href="#SVGID_1_"  overflow="visible"/>
	</clipPath>
	<path clip-path="url(#SVGID_2_)" fill="#F78D1E" d="M48.84,53.95c0.275,1.315,0.509,2.537,0.79,3.747
		c0.488,2.101,1.861,3.459,3.901,3.892c2.293,0.487,4.643,0.729,6.979,0.988c1.898,0.212,3.829,0.244,5.269,1.878
		c2.971-3.237,5.089-6.849,6.342-10.958c0.293-0.959,0.511-1.941,0.755-2.916c0.295-1.183,1.048-1.736,2.071-1.512
		c0.947,0.208,1.405,1.048,1.189,2.184c-2.395,12.589-12.968,22.941-25.61,25.061c-1.292,0.217-2.596,0.358-4.016,0.552
		c0,0.578,0.024,1.158-0.007,1.734c-0.052,0.994-0.727,1.678-1.623,1.688c-0.896,0.012-1.596-0.664-1.66-1.649
		c-0.035-0.545-0.006-1.096-0.006-1.787c0.852,0,1.604,0.009,2.356-0.003c0.643-0.011,1.015-0.232,0.982-0.997
		c-0.057-1.315,0.005-2.635-0.017-3.952c-0.018-1.129-0.694-1.843-1.684-1.839c-0.99,0.005-1.656,0.719-1.669,1.852
		c-0.019,1.586-0.005,3.172-0.005,4.756c-13.55-0.109-29.103-11.64-30.267-30.106c-0.558,0-1.132,0.023-1.705-0.005
		c-1.054-0.055-1.75-0.754-1.721-1.694c0.027-0.907,0.689-1.569,1.717-1.584c2.253-0.032,4.508-0.032,6.761-0.001
		c1.011,0.013,1.687,0.693,1.711,1.592c0.026,0.939-0.669,1.629-1.727,1.685c-0.51,0.025-1.022,0.005-1.527,0.005
		c-0.207,5.328,2.913,13.34,7.608,17.856c1.343-1.596,3.25-1.627,5.117-1.827c2.167-0.23,4.349-0.412,6.487-0.814
		c2.513-0.473,4.21-1.998,4.581-4.606c0.281-1.977,0.393-3.986,0.423-5.984c0.009-0.561-0.405-1.274-0.846-1.672
		c-6.441-5.818-5.678-15.165-2.199-20.275c2.25-3.305,5.574-4.829,8.976-4.066c2.082,0.466,3.708,1.678,5.029,3.31
		c4.584,5.668,4.254,14.656-0.7,20.012c-1.56,1.686-3.451,2.625-5.734,2.809c-1.328,0.105-2.024,0.745-1.976,1.776
		c0.049,1.055,0.91,1.678,2.25,1.583c0.586-0.041,1.172-0.133,1.747-0.255C47.756,54.283,48.315,54.098,48.84,53.95"/>
	<path clip-path="url(#SVGID_2_)" fill="#4C3931" d="M17.239,80.445c-0.749,0.606-1.52,1.249-2.309,1.867
		c-1.324,1.041-2.419,0.737-2.953-0.835c-1.115-3.278-2.204-6.566-3.323-9.844c-0.265-0.779-0.332-1.504,0.324-2.108
		c0.695-0.643,1.43-0.486,2.211-0.106c3.177,1.545,6.369,3.06,9.554,4.589c1.75,0.84,1.877,2.157,0.323,3.317
		c-0.354,0.263-0.709,0.522-1.289,0.951c1.888,1.156,3.567,2.303,5.348,3.257c24.622,13.189,55.079-1.248,60.483-28.663
		c0.872-4.422,0.992-8.878,0.439-13.352c-0.188-1.516,0.272-2.332,1.35-2.475c1.074-0.143,1.761,0.55,1.933,2.062
		c1.553,13.68-2.061,25.83-11.337,36.01c-9.932,10.896-22.506,15.596-37.168,14.46c-8.377-0.65-15.958-3.643-22.729-8.643
		c-0.195-0.144-0.392-0.283-0.594-0.417C17.446,80.479,17.369,80.479,17.239,80.445"/>
	<path clip-path="url(#SVGID_2_)" fill="#4C3931" d="M69.856,11.622c-4.89-3.62-10.124-6.072-15.896-7.302
		C31.422-0.484,9.855,13.019,4.394,35.35c-1.189,4.861-1.456,9.79-0.791,14.76c0.018,0.138,0.032,0.275,0.046,0.414
		c0.126,1.319-0.386,2.132-1.419,2.248c-0.993,0.111-1.703-0.616-1.865-1.915c-2.527-20.171,8.271-39.35,27.067-47.125
		C42.93-2.679,57.738-0.742,71.504,8.861c0.652,0.455,1.068,0.552,1.653-0.041c0.533-0.539,1.156-0.994,1.77-1.446
		c1.062-0.785,2.288-0.493,2.709,0.727c1.221,3.535,2.413,7.081,3.516,10.653c0.146,0.471-0.125,1.31-0.5,1.634
		c-0.376,0.326-1.238,0.47-1.692,0.263c-3.5-1.588-6.964-3.256-10.411-4.956c-1.204-0.593-1.287-1.932-0.258-2.825
		C68.756,12.466,69.253,12.1,69.856,11.622"/>
	<path clip-path="url(#SVGID_2_)" fill="#4C3931" d="M43.216,12.96c0-0.58-0.022-1.131,0.005-1.68
		c0.052-1.072,0.722-1.758,1.666-1.742c0.898,0.015,1.598,0.689,1.611,1.692c0.031,2.286,0.032,4.574-0.007,6.86
		c-0.017,0.987-0.757,1.653-1.659,1.637c-0.904-0.015-1.554-0.681-1.612-1.692c-0.029-0.51-0.005-1.023-0.005-1.633
		c-2.573,0.077-4.972,0.548-7.281,1.379C25.79,21.429,19.455,28.51,16.953,39.005c-0.024,0.101-0.041,0.204-0.068,0.304
		c-0.303,1.098-1.172,1.661-2.173,1.409c-0.882-0.222-1.329-1.071-1.126-2.136c2.339-12.252,12.44-22.438,24.678-24.852
		C39.854,13.417,41.469,13.229,43.216,12.96"/>
	<path clip-path="url(#SVGID_2_)" fill="#4C3931" d="M76.83,43.269c0.595,0,1.181-0.032,1.763,0.007
		c0.976,0.066,1.655,0.791,1.63,1.679c-0.024,0.851-0.687,1.577-1.609,1.591c-2.321,0.036-4.644,0.037-6.966-0.011
		c-0.911-0.018-1.567-0.785-1.563-1.632c0.006-0.85,0.659-1.545,1.58-1.621c0.515-0.042,1.035-0.007,1.789-0.007
		c-0.194-1.393-0.269-2.732-0.578-4.014C70.02,27.42,62.698,19.966,50.861,16.987c-0.135-0.034-0.269-0.069-0.403-0.104
		c-1.118-0.296-1.645-1.031-1.446-2.024c0.188-0.953,1.047-1.448,2.157-1.225c5.017,1.01,9.55,3.089,13.521,6.308
		c7.117,5.769,11.063,13.261,11.956,22.371c0.023,0.241,0.047,0.482,0.074,0.723C76.724,43.066,76.746,43.096,76.83,43.269"/>
	<path clip-path="url(#SVGID_2_)" fill="#4C3931" d="M3.859,55.783c0.232,0.226,0.824,0.578,1.078,1.097
		c0.454,0.925,0.727,1.942,1.032,2.936c0.274,0.895-0.135,1.722-0.947,2.042c-0.801,0.315-1.722-0.023-2.071-0.882
		c-0.429-1.057-0.815-2.141-1.097-3.245C1.593,56.715,2.447,55.756,3.859,55.783"/>
	<path clip-path="url(#SVGID_2_)" fill="#4C3931" d="M85.68,27.9c0.251,0.223,0.875,0.548,1.135,1.058
		c0.467,0.916,0.751,1.932,1.041,2.926c0.25,0.857-0.177,1.714-0.894,1.988c-0.857,0.326-1.896-0.089-2.242-0.98
		c-0.362-0.933-0.681-1.889-0.934-2.857C83.495,28.923,84.23,27.941,85.68,27.9"/>
</g>
</svg>
