<?xml version="1.0" encoding="utf-8"?>
<!-- Generator: Adobe Illustrator 16.0.0, SVG Export Plug-In . SVG Version: 6.00 Build 0)  -->
<!DOCTYPE svg PUBLIC "-//W3C//DTD SVG 1.1//EN" "http://www.w3.org/Graphics/SVG/1.1/DTD/svg11.dtd">
<svg version="1.1" id="Layer_1" xmlns="http://www.w3.org/2000/svg" xmlns:xlink="http://www.w3.org/1999/xlink" x="0px" y="0px"
	 width="90.731px" height="87.707px" viewBox="0 0 90.731 87.707" enable-background="new 0 0 90.731 87.707" xml:space="preserve">
<rect x="10.585" y="22.877" fill="#F78D1E" width="48.622" height="30.457"/>
<g>
	<defs>
		<rect id="SVGID_1_" width="90.731" height="87.707"/>
	</defs>
	<clipPath id="SVGID_2_">
		<use xlink:href="#SVGID_1_"  overflow="visible"/>
	</clipPath>
	<path clip-path="url(#SVGID_2_)" fill="#4C3931" d="M86.195,0H4.537C2.032,0.002,0.003,2.032,0,4.537v78.634
		c0.003,2.505,2.032,4.533,4.537,4.536h81.658c2.505-0.003,4.533-2.031,4.536-4.536V4.537C90.729,2.032,88.7,0.002,86.195,0
		 M4.537,3.024h81.658c0.835,0.001,1.511,0.677,1.512,1.512v7.561H3.025V4.537C3.026,3.702,3.702,3.025,4.537,3.024 M86.195,84.683
		H4.537c-0.835-0.001-1.511-0.677-1.512-1.512V15.122h84.682v68.049C87.706,84.006,87.03,84.682,86.195,84.683"/>
	<path clip-path="url(#SVGID_2_)" fill="#4C3931" d="M58.975,21.171h-48.39c-0.834,0-1.512,0.677-1.512,1.512v30.244
		c0,0.834,0.678,1.513,1.512,1.513h48.39c0.835,0,1.514-0.679,1.514-1.513V22.683C60.488,21.848,59.81,21.171,58.975,21.171
		 M57.463,51.414H12.097V24.195h45.366V51.414z"/>
	<path clip-path="url(#SVGID_2_)" fill="#4C3931" d="M21.171,7.561c0,0.835-0.677,1.512-1.512,1.512s-1.512-0.677-1.512-1.512
		s0.677-1.512,1.512-1.512S21.171,6.726,21.171,7.561"/>
	<path clip-path="url(#SVGID_2_)" fill="#4C3931" d="M15.122,7.561c0,0.835-0.677,1.512-1.512,1.512s-1.512-0.677-1.512-1.512
		s0.677-1.512,1.512-1.512S15.122,6.726,15.122,7.561"/>
	<path clip-path="url(#SVGID_2_)" fill="#4C3931" d="M9.073,7.561c0,0.835-0.677,1.512-1.512,1.512S6.049,8.396,6.049,7.561
		s0.677-1.512,1.512-1.512S9.073,6.726,9.073,7.561"/>
	<path clip-path="url(#SVGID_2_)" fill="#4C3931" d="M80.146,21.171H65.024c-0.835,0-1.513,0.677-1.513,1.512V34.78
		c0,0.835,0.678,1.513,1.513,1.513h15.122c0.835,0,1.512-0.678,1.512-1.513V22.683C81.658,21.848,80.981,21.171,80.146,21.171
		 M78.634,33.268H66.536v-9.073h12.098V33.268z"/>
	<path clip-path="url(#SVGID_2_)" fill="#4C3931" d="M30.96,43.627c0.446,0.276,1.003,0.301,1.472,0.066l9.073-4.536
		c0.512-0.256,0.836-0.78,0.836-1.353c0-0.573-0.324-1.097-0.836-1.353l-9.073-4.536c-0.469-0.235-1.026-0.209-1.471,0.066
		c-0.446,0.275-0.717,0.763-0.717,1.287v9.073C30.244,42.865,30.515,43.353,30.96,43.627 M33.268,35.715l4.179,2.09l-4.179,2.09
		V35.715z"/>
	<path clip-path="url(#SVGID_2_)" fill="#4C3931" d="M22.683,57.463H10.585c-0.834,0-1.512,0.678-1.512,1.513
		s0.678,1.512,1.512,1.512h12.098c0.835,0,1.512-0.677,1.512-1.512S23.518,57.463,22.683,57.463"/>
	<path clip-path="url(#SVGID_2_)" fill="#4C3931" d="M39.317,65.024c0-0.835-0.677-1.513-1.512-1.513H16.634
		c-0.835,0-1.512,0.678-1.512,1.513s0.677,1.512,1.512,1.512h21.171C38.64,66.536,39.317,65.859,39.317,65.024"/>
	<path clip-path="url(#SVGID_2_)" fill="#4C3931" d="M16.634,69.561c-0.835,0-1.512,0.677-1.512,1.512
		c0,0.836,0.677,1.513,1.512,1.513h16.634c0.835,0,1.512-0.677,1.512-1.513c0-0.835-0.677-1.512-1.512-1.512H16.634z"/>
	<path clip-path="url(#SVGID_2_)" fill="#4C3931" d="M12.098,65.024c0,0.835-0.677,1.512-1.512,1.512s-1.512-0.677-1.512-1.512
		s0.677-1.513,1.512-1.513S12.098,64.189,12.098,65.024"/>
	<path clip-path="url(#SVGID_2_)" fill="#4C3931" d="M12.098,71.073c0,0.835-0.677,1.512-1.512,1.512s-1.512-0.677-1.512-1.512
		s0.677-1.513,1.512-1.513S12.098,70.238,12.098,71.073"/>
	<path clip-path="url(#SVGID_2_)" fill="#4C3931" d="M46.878,75.609H16.634c-0.835,0-1.512,0.677-1.512,1.512
		s0.677,1.513,1.512,1.513h30.244c0.835,0,1.512-0.678,1.512-1.513S47.713,75.609,46.878,75.609"/>
	<path clip-path="url(#SVGID_2_)" fill="#4C3931" d="M12.098,77.122c0,0.835-0.677,1.512-1.512,1.512s-1.512-0.677-1.512-1.512
		s0.677-1.513,1.512-1.513S12.098,76.287,12.098,77.122"/>
	<polygon clip-path="url(#SVGID_2_)" fill="#4C3931" points="71.073,27.219 71.073,30.244 74.097,28.731 	"/>
	<path clip-path="url(#SVGID_2_)" fill="#4C3931" d="M80.146,39.317H65.024c-0.835,0-1.513,0.677-1.513,1.512v12.098
		c0,0.834,0.678,1.513,1.513,1.513h15.122c0.835,0,1.512-0.679,1.512-1.513V40.829C81.658,39.994,80.981,39.317,80.146,39.317
		 M78.634,51.414H66.536v-9.073h12.098V51.414z"/>
	<polygon clip-path="url(#SVGID_2_)" fill="#4C3931" points="71.073,45.366 71.073,48.39 74.097,46.878 	"/>
	<path clip-path="url(#SVGID_2_)" fill="#4C3931" d="M80.146,57.463H65.024c-0.835,0-1.513,0.678-1.513,1.512v12.099
		c0,0.835,0.678,1.512,1.513,1.512h15.122c0.835,0,1.512-0.677,1.512-1.512V58.975C81.658,58.141,80.981,57.463,80.146,57.463
		 M78.634,69.561H66.536v-9.072h12.098V69.561z"/>
	<polygon clip-path="url(#SVGID_2_)" fill="#4C3931" points="71.073,63.512 71.073,66.536 74.097,65.024 	"/>
	<path clip-path="url(#SVGID_2_)" fill="#4C3931" d="M68.049,77.122c0,0.835-0.677,1.512-1.513,1.512
		c-0.835,0-1.512-0.677-1.512-1.512s0.677-1.513,1.512-1.513C67.372,75.609,68.049,76.287,68.049,77.122"/>
	<path clip-path="url(#SVGID_2_)" fill="#4C3931" d="M74.098,77.122c0,0.835-0.678,1.512-1.513,1.512s-1.512-0.677-1.512-1.512
		s0.677-1.513,1.512-1.513S74.098,76.287,74.098,77.122"/>
	<path clip-path="url(#SVGID_2_)" fill="#4C3931" d="M80.146,77.122c0,0.835-0.678,1.512-1.513,1.512s-1.512-0.677-1.512-1.512
		s0.677-1.513,1.512-1.513S80.146,76.287,80.146,77.122"/>
</g>
</svg>
