<?xml version="1.0" encoding="utf-8"?>
<!-- Generator: Adobe Illustrator 16.0.0, SVG Export Plug-In . SVG Version: 6.00 Build 0)  -->
<!DOCTYPE svg PUBLIC "-//W3C//DTD SVG 1.1//EN" "http://www.w3.org/Graphics/SVG/1.1/DTD/svg11.dtd">
<svg version="1.1" id="Layer_1" xmlns="http://www.w3.org/2000/svg" xmlns:xlink="http://www.w3.org/1999/xlink" x="0px" y="0px"
	 width="43.416px" height="43.371px" viewBox="0 0 43.416 43.371" enable-background="new 0 0 43.416 43.371" xml:space="preserve">
<path fill="#F27421" d="M-52.251,19.022v-0.513c0-1.544-0.467-2.978-1.266-4.171C-52.921,15.824-52.487,17.393-52.251,19.022"/>
<g>
	<path fill="#F27421" d="M10.256,23.291L2.41,30.734c-2.938,2.836-3,7.525-0.139,10.438c2.825,2.877,7.439,2.939,10.343,0.143
		l7.855-7.434c2.842-2.738,3.017-7.23,0.398-10.182C18.09,20.57,13.266,20.385,10.256,23.291"/>
	<path fill="#E34F25" d="M11.602,22.268c-0.476,0.285-0.929,0.621-1.346,1.023L2.41,30.734c-2.938,2.836-3,7.525-0.139,10.438
		c2.825,2.875,7.439,2.939,10.343,0.143l7.855-7.434c1.497-1.441,2.246-3.369,2.245-5.305
		C18.222,27.871,14.378,25.561,11.602,22.268"/>
	<path fill="#F27421" d="M35.906,0H7.539C3.375,0,0,3.375,0,7.539s3.375,7.539,7.539,7.539h18.054c1.515,0,2.744,1.228,2.744,2.743
		v17.985c0,4.164,3.375,7.539,7.54,7.539c4.164,0,7.539-3.375,7.539-7.539V7.509C43.416,3.362,40.053,0,35.906,0"/>
</g>
</svg>
