<?xml version="1.0" encoding="utf-8"?>
<!-- Generator: Adobe Illustrator 16.0.0, SVG Export Plug-In . SVG Version: 6.00 Build 0)  -->
<!DOCTYPE svg PUBLIC "-//W3C//DTD SVG 1.1//EN" "http://www.w3.org/Graphics/SVG/1.1/DTD/svg11.dtd">
<svg version="1.1" id="Layer_1" xmlns="http://www.w3.org/2000/svg" xmlns:xlink="http://www.w3.org/1999/xlink" x="0px" y="0px"
	 width="220.171px" height="213.854px" viewBox="0 0 220.171 213.854" enable-background="new 0 0 220.171 213.854"
	 xml:space="preserve">
<g>
	<defs>
		<rect id="SVGID_1_" width="220.171" height="213.854"/>
	</defs>
	<clipPath id="SVGID_2_">
		<use xlink:href="#SVGID_1_"  overflow="visible"/>
	</clipPath>
	<g clip-path="url(#SVGID_2_)">
		<defs>
			<rect id="SVGID_3_" width="220.171" height="213.854"/>
		</defs>
		<clipPath id="SVGID_4_">
			<use xlink:href="#SVGID_3_"  overflow="visible"/>
		</clipPath>
		<path clip-path="url(#SVGID_4_)" fill="#4B3C51" d="M112.798,63.405c-1.806,4.19-3.19,8.24-3.862,12.403
			c-0.672,4.162-0.904,8.405-1.939,12.493c-0.914,3.613-2.441,7.039-4.081,10.385c-0.15,0.305-0.304,0.624-0.303,0.964
			c0.002,0.663,0.574,1.167,1.109,1.559c8.136,5.948,19.42,7.292,28.727,3.42"/>
		<path clip-path="url(#SVGID_4_)" fill="#00B7D8" d="M118.651,81.51c0,5.507-3.59,9.971-8.02,9.971
			c-4.429,0-8.019-4.464-8.019-9.971c0-5.507,3.59-9.971,8.019-9.971C115.062,71.539,118.651,76.002,118.651,81.51"/>
		<path clip-path="url(#SVGID_4_)" fill="#04A2BC" d="M122.424,82.921c0,5.507-3.59,9.971-8.02,9.971
			c-4.429,0-8.019-4.464-8.019-9.971c0-5.507,3.59-9.971,8.019-9.971C118.834,72.95,122.424,77.414,122.424,82.921"/>
		<path clip-path="url(#SVGID_4_)" fill="#3E3244" d="M132.447,104.661l-16.732-35.105c-1.853,6.168-3.704,12.336-5.452,18.535
			c-0.583,2.062-1.155,4.141-1.347,6.275c-0.168,1.867-0.039,3.76,0.38,5.587c0.408,1.78,1.117,3.537,2.364,4.869
			c0.226,0.24,0.485,0.442,0.736,0.654C118.929,107.458,126.135,107.288,132.447,104.661"/>
		<path clip-path="url(#SVGID_4_)" fill="#E8A17E" d="M128.931,103.453c0.756,4.261,1.383,9.098-1.262,12.523
			c-0.58,0.751-1.335,1.484-1.378,2.433c-0.055,1.243,1.134,2.156,2.245,2.713c4.302,2.152,9.504,2.421,14.004,0.725
			c0.373-0.141,0.758-0.306,1.009-0.614c0.565-0.7,0.203-1.729-0.146-2.561c-3.193-7.623-3.103-16.56,0.246-24.117"/>
		<path clip-path="url(#SVGID_4_)" fill="#D88D6C" d="M128.552,102.211c0.739,2.993,1.225,5.874,0.898,8.94
			c-0.012,0.104-0.019,0.224,0.054,0.3c0.097,0.103,0.266,0.063,0.398,0.015c0.982-0.354,1.977-0.716,2.84-1.304
			c1.452-0.991,3.165-2.814,3.913-4.406c1.033-2.201,1.54-4.354,1.354-6.779"/>
		<path clip-path="url(#SVGID_4_)" fill="#E8A17E" d="M118.698,63.984c-3.038,3.392-3.746,8.222-4.146,12.758
			c-0.353,3.996-0.567,8.036-0.002,12.008c0.567,3.972,1.962,7.903,4.531,10.984c1.082,1.299,2.362,2.433,3.781,3.352
			c0.979,0.633,2.037,1.169,3.176,1.414c2.165,0.465,4.404-0.156,6.511-0.839c4.8-1.557,9.744-3.661,12.707-7.746
			c3.861-5.323,6.415-19.33,7.418-25.829"/>
		<path clip-path="url(#SVGID_4_)" fill="#D88D6C" d="M112.646,68.114c4.488,3.882,10.063,6.494,15.917,7.459
			c3.395,0.56,6.854,0.575,10.292,0.501c1.288-0.027,2.589-0.068,3.84-0.374c1.734-0.424,3.386-1.406,4.335-2.919
			c0.947-1.514,1.074-3.588,0.068-5.063"/>
		<path clip-path="url(#SVGID_4_)" fill="#4B3C51" d="M151.395,50.366c-8.558-4.138-20.951-3.281-27.179,0.283
			c-6.228,3.565-8.809,6.755-12.06,14.182c-0.193,0.444-1.317,3.177-1.147,3.63c0.169,0.45,0.386,0.7,0.835,0.872
			c7.692,2.935,14.456,3.465,22.679,3.871c2.739,0.136,5.519,0.141,8.184-0.505c3.771,12.633,1.806,21.687-4.476,33.279
			c4.088,1.724,19.984,2.716,27.549-3.144c1.951-1.511,3.732-3.299,4.918-5.463c3.009-5.491,1.717-12.26,0.081-18.302
			c-1.217-4.498-2.596-8.991-4.806-13.094C162.579,59.674,157.966,53.202,151.395,50.366"/>
		<path clip-path="url(#SVGID_4_)" fill="#FFFFFF" d="M121.416,91.818c0.625,1.929,1.342,3.708,3.049,4.801
			c1.693,1.085,3.956,0.958,5.776,0.105c1.819-0.852,3.552-2.99,4.825-4.545C130.647,92.592,125.787,92.589,121.416,91.818"/>
		<path clip-path="url(#SVGID_4_)" fill="#3E3244" d="M156.903,101.972c-0.52-0.412-0.988-0.915-1.237-1.529
			c-0.484-1.195-0.063-2.541,0.308-3.776c0.629-2.091,1.112-4.255,1.036-6.437c-0.077-2.183-0.757-4.4-2.218-6.022
			c-2.116-2.349-5.441-3.094-8.541-3.715c-0.651-0.13-1.302-0.26-1.953-0.391c1.159,9.056-1.05,16.681-6.032,25.877
			c4.088,1.724,19.983,2.716,27.549-3.144c0.276-0.214,0.539-0.447,0.808-0.673c-0.464,0.261-0.928,0.526-1.428,0.721
			C162.482,103.939,159.183,103.781,156.903,101.972"/>
		<path clip-path="url(#SVGID_4_)" fill="#161119" d="M129.021,80.425c-2.131-1.13-3.766-0.046-3.785-0.033l-0.411-0.605
			c0.081-0.054,2.021-1.343,4.539-0.007L129.021,80.425z"/>
		<polygon clip-path="url(#SVGID_4_)" fill="#161119" points="144.33,80.221 142.418,80.188 142.418,79.458 144.229,79.458 		"/>
		<polyline clip-path="url(#SVGID_4_)" fill="#D88D6C" points="126.557,81.744 124.241,88.836 127.887,89.132 		"/>
		<path clip-path="url(#SVGID_4_)" fill="#3E3244" d="M133.787,76.102c0.146-0.091,0.304-0.168,0.46-0.241
			c0.094-0.045,0.188-0.087,0.284-0.127c-0.034,0.015-0.069,0.029-0.104,0.044c0.238-0.1,0.48-0.189,0.727-0.268
			c0.306-0.097,0.614-0.178,0.929-0.242c0.2-0.041,0.403-0.076,0.607-0.103l-0.117,0.016c0.585-0.078,1.179-0.098,1.767-0.057
			c0.183,0.013,0.364,0.032,0.545,0.056c-0.039-0.005-0.077-0.01-0.116-0.016c0.596,0.081,1.184,0.225,1.751,0.425
			c0.174,0.062,0.346,0.129,0.518,0.201c-0.035-0.015-0.07-0.03-0.105-0.044c0.637,0.269,1.242,0.608,1.813,0.999
			c0.09,0.061,0.235,0.072,0.338,0.044c0.101-0.028,0.212-0.107,0.262-0.202c0.054-0.101,0.081-0.225,0.044-0.337
			c-0.037-0.113-0.104-0.195-0.201-0.262c-0.895-0.614-1.885-1.101-2.928-1.403c-0.852-0.247-1.745-0.369-2.63-0.358
			c-0.729,0.009-1.459,0.106-2.165,0.283c-0.521,0.131-1.027,0.311-1.519,0.53c-0.201,0.089-0.404,0.184-0.593,0.3
			c-0.002,0.002-0.005,0.003-0.008,0.005c-0.095,0.059-0.171,0.153-0.201,0.262c-0.029,0.105-0.016,0.245,0.044,0.338
			c0.062,0.093,0.15,0.176,0.262,0.201C133.562,76.172,133.686,76.165,133.787,76.102"/>
		<path clip-path="url(#SVGID_4_)" fill="#3E3244" d="M121.989,76.154c-0.128-0.117-0.269-0.221-0.408-0.321
			c-0.084-0.061-0.171-0.119-0.257-0.176l0.096,0.062c-0.217-0.142-0.439-0.274-0.667-0.396c-0.281-0.151-0.571-0.287-0.867-0.407
			c-0.191-0.077-0.384-0.148-0.58-0.212c0.038,0.012,0.075,0.024,0.112,0.037c-0.562-0.184-1.141-0.311-1.727-0.378
			c-0.182-0.02-0.364-0.035-0.546-0.044c0.039,0.002,0.078,0.004,0.117,0.006c-0.602-0.029-1.204,0.005-1.799,0.099
			c-0.183,0.029-0.364,0.063-0.545,0.103c0.037-0.008,0.073-0.016,0.11-0.025c-0.675,0.15,0.224,0.607-1.015,0.283
			c-0.115-0.03,0.807-1.194,1.888-1.301c0.882-0.088,1.783-0.045,2.652,0.127c0.714,0.141,1.415,0.37,2.077,0.673
			c0.487,0.223,0.954,0.492,1.396,0.797c0.182,0.124,0.364,0.255,0.527,0.403c0.003,0.002,0.005,0.004,0.007,0.006
			c0.083,0.076,0.141,0.181,0.15,0.294c0.01,0.109-0.029,0.244-0.105,0.325s-0.179,0.145-0.294,0.15
			C122.197,76.264,122.077,76.234,121.989,76.154"/>
		<path clip-path="url(#SVGID_4_)" fill="#3E3244" d="M134.063,80.983c0.262-0.372,0.75-0.774,1.195-1.022
			c1.25-0.695,2.598-0.206,3.634,0.641c0.247,0.202,0.603-0.15,0.353-0.354c-1.111-0.908-2.508-1.466-3.905-0.876
			c-0.667,0.282-1.288,0.764-1.708,1.359C133.444,80.995,133.879,81.244,134.063,80.983"/>
		<path clip-path="url(#SVGID_4_)" fill="#3E3244" d="M115.898,80.328c0.262-0.372,0.75-0.774,1.194-1.022
			c1.25-0.695,2.599-0.206,3.635,0.641c0.246,0.202,0.603-0.15,0.353-0.354c-1.112-0.908-2.508-1.466-3.906-0.876
			c-0.667,0.282-1.288,0.764-1.708,1.359C115.28,80.34,115.714,80.588,115.898,80.328"/>
		<g opacity="0.45" clip-path="url(#SVGID_4_)">
			<g>
				<defs>
					<rect id="SVGID_5_" x="136.457" y="84.322" width="6.267" height="6.267"/>
				</defs>
				<clipPath id="SVGID_6_">
					<use xlink:href="#SVGID_5_"  overflow="visible"/>
				</clipPath>
				<path clip-path="url(#SVGID_6_)" fill="#F27B53" d="M142.724,87.456c0,1.73-1.402,3.133-3.133,3.133s-3.134-1.403-3.134-3.133
					s1.403-3.133,3.134-3.133S142.724,85.726,142.724,87.456"/>
			</g>
		</g>
		<g opacity="0.45" clip-path="url(#SVGID_4_)">
			<g>
				<defs>
					<rect id="SVGID_7_" x="114.405" y="83.596" width="5.28" height="5.282"/>
				</defs>
				<clipPath id="SVGID_8_">
					<use xlink:href="#SVGID_7_"  overflow="visible"/>
				</clipPath>
				<path clip-path="url(#SVGID_8_)" fill="#F27B53" d="M119.687,86.237c0,1.458-1.183,2.641-2.642,2.641
					c-1.458,0-2.641-1.183-2.641-2.641s1.183-2.641,2.641-2.641C118.504,83.596,119.687,84.779,119.687,86.237"/>
			</g>
		</g>
		<path clip-path="url(#SVGID_4_)" fill="#161119" d="M118.359,87.289c-3.818,0-6.925-3.106-6.925-6.924
			c0-3.819,3.106-6.925,6.925-6.925c3.819,0,6.926,3.106,6.926,6.925C125.285,84.183,122.179,87.289,118.359,87.289 M118.359,74.238
			c-3.377,0-6.127,2.749-6.127,6.127c0,3.377,2.75,6.126,6.127,6.126s6.127-2.749,6.127-6.126
			C124.486,76.987,121.736,74.238,118.359,74.238"/>
		<path clip-path="url(#SVGID_4_)" fill="#161119" d="M135.78,87.289c-3.819,0-6.925-3.106-6.925-6.924
			c0-3.819,3.105-6.925,6.925-6.925s6.925,3.106,6.925,6.925C142.705,84.183,139.6,87.289,135.78,87.289 M135.78,74.238
			c-3.377,0-6.127,2.749-6.127,6.127c0,3.377,2.75,6.126,6.127,6.126s6.127-2.749,6.127-6.126
			C141.907,76.987,139.157,74.238,135.78,74.238"/>
		<path clip-path="url(#SVGID_4_)" fill="#161119" d="M131.033,100.335c0.101,1.036-0.893,1.979-2.218,2.107
			s-2.479-0.608-2.58-1.644c-0.1-1.036,0.894-1.979,2.218-2.107C129.778,98.563,130.934,99.299,131.033,100.335"/>
		<path clip-path="url(#SVGID_4_)" fill="#161119" d="M132.996,100.94c-1.062,0.102-2.149,0.138-3.26,0.094l0.041-1.039
			c12.554,0.5,22.208-9.641,22.304-9.743l0.759,0.711C152.749,91.061,144.395,99.84,132.996,100.94"/>
		<path clip-path="url(#SVGID_4_)" fill="#00B7D8" d="M111.268,72.223c1.003-7.035,4.689-14.785,10.73-18.763
			c5.409-3.562,12.646-3.789,18.609-1.502c5.136,1.969,8.537,6.36,10.213,11.478c1.427,4.359,1.619,8.838,1.951,13.367
			c0.109,1.494,2.452,1.506,2.341,0c-0.316-4.31-0.492-8.605-1.672-12.795c-1.536-5.456-4.684-10.466-9.781-13.207
			c-6.065-3.261-14.105-3.609-20.373-0.734c-5.096,2.338-8.822,6.894-11.187,11.875c-1.435,3.019-2.615,6.332-3.09,9.659
			C108.799,73.074,111.056,73.711,111.268,72.223"/>
		<path clip-path="url(#SVGID_4_)" fill="#00B7D8" d="M160.693,84.322c0,5.507-3.591,9.971-8.02,9.971s-8.019-4.464-8.019-9.971
			s3.59-9.971,8.019-9.971S160.693,78.815,160.693,84.322"/>
		<path clip-path="url(#SVGID_4_)" fill="#04A2BC" d="M161.555,84.322c0,5.231-3.411,9.472-7.618,9.472
			c-4.208,0-7.619-4.241-7.619-9.472s3.411-9.472,7.619-9.472C158.144,74.85,161.555,79.091,161.555,84.322"/>
		<g opacity="0.07" clip-path="url(#SVGID_4_)">
			<g>
				<defs>
					<rect id="SVGID_9_" x="171.348" y="31.633" width="48.823" height="32.712"/>
				</defs>
				<clipPath id="SVGID_10_">
					<use xlink:href="#SVGID_9_"  overflow="visible"/>
				</clipPath>
				<path clip-path="url(#SVGID_10_)" fill="#26476D" d="M215.409,64.345h-39.3c-2.63,0-4.762-2.132-4.762-4.762V36.395
					c0-2.63,2.132-4.762,4.762-4.762h39.3c2.63,0,4.763,2.132,4.763,4.762v23.188C220.172,62.213,218.039,64.345,215.409,64.345"/>
			</g>
		</g>
		<path clip-path="url(#SVGID_4_)" fill="#FFFFFF" d="M214.263,63.246h-39.3c-2.631,0-4.763-2.132-4.763-4.762V35.296
			c0-2.63,2.132-4.762,4.763-4.762h39.3c2.63,0,4.762,2.132,4.762,4.762v23.188C219.024,61.114,216.893,63.246,214.263,63.246"/>
		<path clip-path="url(#SVGID_4_)" fill="#FFCE45" d="M197.924,36.522c0.996,0.474,1.779,1.132,2.351,1.974
			c0.571,0.842,0.856,1.776,0.856,2.801c0,0.774-0.131,1.456-0.393,2.046c-0.261,0.59-0.581,1.093-0.958,1.509
			c-0.377,0.417-0.875,0.886-1.494,1.408c-0.833,0.716-1.45,1.355-1.857,1.916c-0.406,0.561-0.609,1.258-0.609,2.09v0.406
			c0,0.213-0.078,0.397-0.231,0.552c-0.156,0.154-0.34,0.231-0.553,0.231h-1.073c-0.213,0-0.397-0.077-0.553-0.231
			c-0.153-0.155-0.231-0.339-0.231-0.552v-0.609c0-0.774,0.136-1.457,0.407-2.047c0.27-0.59,0.595-1.088,0.972-1.495
			c0.377-0.406,0.885-0.899,1.523-1.48c0.813-0.697,1.418-1.311,1.813-1.843c0.398-0.532,0.596-1.166,0.596-1.901
			c0-0.929-0.387-1.664-1.161-2.206s-1.703-0.813-2.785-0.813c-1.047,0-1.916,0.261-2.613,0.784
			c-0.697,0.522-1.181,1.325-1.451,2.409c-0.039,0.193-0.131,0.348-0.275,0.464c-0.146,0.116-0.306,0.174-0.479,0.174h-1.249
			c-0.174,0-0.329-0.062-0.465-0.188c-0.135-0.126-0.193-0.276-0.173-0.45c0.058-0.91,0.343-1.8,0.855-2.67
			c0.514-0.871,1.268-1.587,2.265-2.149c0.997-0.56,2.19-0.841,3.585-0.841C195.8,35.811,196.928,36.048,197.924,36.522
			 M195.878,56.187c-0.156,0.155-0.339,0.232-0.553,0.232h-1.653c-0.214,0-0.397-0.077-0.553-0.232
			c-0.154-0.155-0.232-0.339-0.232-0.552v-1.654c0-0.213,0.078-0.397,0.232-0.552c0.155-0.155,0.339-0.232,0.553-0.232h1.653
			c0.214,0,0.396,0.077,0.553,0.232c0.154,0.155,0.23,0.339,0.23,0.552v1.654C196.108,55.848,196.032,56.032,195.878,56.187"/>
		<g opacity="0.07" clip-path="url(#SVGID_4_)">
			<g>
				<defs>
					<rect id="SVGID_11_" x="72.16" y="1.062" width="48.824" height="40.134"/>
				</defs>
				<clipPath id="SVGID_12_">
					<use xlink:href="#SVGID_11_"  overflow="visible"/>
				</clipPath>
				<path clip-path="url(#SVGID_12_)" fill="#26476D" d="M116.029,1.062H77.115c-2.736,0-4.955,2.218-4.955,4.955v22.802
					c0,2.736,2.219,4.955,4.955,4.955h27.601l10.457,7.422v-7.422h0.856c2.735,0,4.955-2.219,4.955-4.955V6.017
					C120.984,3.28,118.765,1.062,116.029,1.062"/>
			</g>
		</g>
		<path clip-path="url(#SVGID_4_)" fill="#FFFFFF" d="M114.859,0H75.946c-2.736,0-4.955,2.218-4.955,4.955v22.802
			c0,2.736,2.219,4.955,4.955,4.955h27.601l10.457,7.422v-7.422h0.855c2.736,0,4.955-2.219,4.955-4.955V4.955
			C119.814,2.218,117.596,0,114.859,0"/>
		<path clip-path="url(#SVGID_4_)" fill="#FFCE45" d="M114.697,8.446H101.66H80.879h-4.771c-0.502,0-0.503,0.78,0,0.78h13.038
			h20.781h4.771C115.199,9.226,115.201,8.446,114.697,8.446"/>
		<path clip-path="url(#SVGID_4_)" fill="#FFCE45" d="M114.697,13.532H101.66H80.879h-4.771c-0.502,0-0.503,0.78,0,0.78h13.038
			h20.781h4.771C115.199,14.312,115.201,13.532,114.697,13.532"/>
		<path clip-path="url(#SVGID_4_)" fill="#FFCE45" d="M103.17,18.617h-9.129H79.473h-3.365c-0.502,0-0.503,0.78,0,0.78h9.129h14.567
			h3.366C103.672,19.397,103.673,18.617,103.17,18.617"/>
		<path clip-path="url(#SVGID_4_)" fill="#FFCE45" d="M103.17,23.703h-9.129H79.473h-3.365c-0.502,0-0.503,0.78,0,0.78h9.129h14.567
			h3.366C103.672,24.483,103.673,23.703,103.17,23.703"/>
		<g opacity="0.07" clip-path="url(#SVGID_4_)">
			<g>
				<defs>
					<rect id="SVGID_13_" x="66.688" y="41.706" width="31.717" height="26.072"/>
				</defs>
				<clipPath id="SVGID_14_">
					<use xlink:href="#SVGID_13_"  overflow="visible"/>
				</clipPath>
				<path clip-path="url(#SVGID_14_)" fill="#26476D" d="M95.187,41.706h-25.28c-1.777,0-3.219,1.441-3.219,3.219v14.813
					c0,1.778,1.442,3.219,3.219,3.219h17.931l6.793,4.821v-4.821h0.556c1.778,0,3.219-1.441,3.219-3.219V44.925
					C98.406,43.147,96.965,41.706,95.187,41.706"/>
			</g>
		</g>
		<path clip-path="url(#SVGID_4_)" fill="#FFFFFF" d="M94.428,41.016h-25.28c-1.777,0-3.219,1.441-3.219,3.219v14.813
			c0,1.778,1.442,3.219,3.219,3.219h17.931l6.793,4.821v-4.821h0.556c1.778,0,3.219-1.441,3.219-3.219V44.235
			C97.646,42.458,96.206,41.016,94.428,41.016"/>
		<path clip-path="url(#SVGID_4_)" fill="#FFCE45" d="M94.322,46.503h-8.47h-13.5h-3.099c-0.327,0-0.327,0.507,0,0.507h8.469h13.501
			h3.099C94.648,47.01,94.649,46.503,94.322,46.503"/>
		<path clip-path="url(#SVGID_4_)" fill="#FFCE45" d="M94.322,49.807h-8.47h-13.5h-3.099c-0.327,0-0.327,0.507,0,0.507h8.469h13.501
			h3.099C94.648,50.314,94.649,49.807,94.322,49.807"/>
		<path clip-path="url(#SVGID_4_)" fill="#FFCE45" d="M86.833,53.111h-5.931h-9.463h-2.187c-0.326,0-0.326,0.507,0,0.507h5.931
			h9.464h2.186C87.16,53.618,87.161,53.111,86.833,53.111"/>
		<path clip-path="url(#SVGID_4_)" fill="#FFCE45" d="M86.833,56.415h-5.931h-9.463h-2.187c-0.326,0-0.326,0.507,0,0.507h5.931
			h9.464h2.186C87.16,56.921,87.161,56.415,86.833,56.415"/>
		<g opacity="0.07" clip-path="url(#SVGID_4_)">
			<g>
				<defs>
					<rect id="SVGID_15_" x="1.449" y="78.278" width="48.824" height="32.711"/>
				</defs>
				<clipPath id="SVGID_16_">
					<use xlink:href="#SVGID_15_"  overflow="visible"/>
				</clipPath>
				<path clip-path="url(#SVGID_16_)" fill="#26476D" d="M45.511,110.99h-39.3c-2.63,0-4.762-2.133-4.762-4.762V83.04
					c0-2.63,2.132-4.762,4.762-4.762h39.3c2.63,0,4.762,2.132,4.762,4.762v23.188C50.273,108.857,48.141,110.99,45.511,110.99"/>
			</g>
		</g>
		<path clip-path="url(#SVGID_4_)" fill="#FFFFFF" d="M44.062,109.692h-39.3c-2.63,0-4.762-2.132-4.762-4.763V81.741
			c0-2.63,2.132-4.762,4.762-4.762h39.3c2.63,0,4.762,2.132,4.762,4.762v23.188C48.824,107.56,46.692,109.692,44.062,109.692"/>
		<path clip-path="url(#SVGID_4_)" fill="#FFCE45" d="M19.955,84.705c0.348,3.702,4.301,3.117,4.301,3.117
			c2.413,0.354,2.053,5.638,2.053,5.638s-0.257,5.29-2.696,5.36c0,0-3.858-1.042-4.634,2.595c-0.777,3.637,1.416,5.498,4.991,5.252
			c0,0,4.952-0.48,5.691-13.126c0.408-12.817-4.137-13.472-4.137-13.472C22.002,79.409,19.607,81.003,19.955,84.705"/>
		<path clip-path="url(#SVGID_4_)" fill="#FFCE45" d="M142.576,116.445c10.502,0.445,21.866,3.614,29.554,10.783
			c0.649,0.606,1.292,1.273,1.575,2.115c0.415,1.231-0.012,2.569-0.404,3.808c-4.543,14.306-4.787,29.945-0.693,44.386
			c1.072,3.78,2.44,7.515,2.809,11.427c0.369,3.911-0.409,8.146-3.112,10.997c-1.163,1.228-2.621,2.138-4.13,2.901
			c-8.407,4.249-18.279,4.091-27.691,3.699c-5.803-0.24-11.663-0.545-17.25-2.132s-10.952-4.588-14.347-9.301
			c-3.503-4.862-4.598-11.037-5.043-17.013c-1.012-13.571,0.83-27.18,1.085-40.786c0.075-3.957-0.009-8.036-1.552-11.681
			c7.171-4.959,15.743-7.972,24.292-9.673c1.836,2.445,4.413,3.559,7.466,3.714C138.188,119.846,140.501,118.689,142.576,116.445"/>
		<path clip-path="url(#SVGID_4_)" fill="#FFA748" d="M170.968,187.255c-0.341-3.912,2.438-8.437,1.447-12.217
			c-2.515-9.608-7.257-18.951-6.236-28.874c-2.157,1.081-4.111,2.509-5.223,4.641c-0.913,1.752-1.148,3.789-1.171,5.774
			c-0.044,3.966,0.695,7.896,0.853,11.858c0.156,3.963-0.34,8.14-2.57,11.383c-2.576,3.744-7.017,5.635-11.348,6.795
			c-2.914,0.779-5.887,1.315-8.863,1.785c-3.422,0.539-6.902,0.992-10.337,0.551c-3.436-0.442-6.865-1.872-9.123-4.557
			c-3.578-4.255-3.471-10.434-4.115-16.007c-0.707-6.122-2.554-12.104-5.413-17.533c-0.857-1.628-1.863-3.268-3.411-4.223
			c-0.004-0.002-0.009-0.003-0.013-0.006c-0.532,9.937-6.284,20.371-5.602,30.283c0.411,5.976,6.453,11.649,9.688,16.512
			c3.135,4.712,8.089,7.714,13.248,9.301s10.571,1.891,15.93,2.131c8.691,0.392,17.809,0.551,25.572-3.699
			c1.394-0.763,2.739-1.674,3.813-2.9C170.59,195.402,171.308,191.167,170.968,187.255"/>
		<path clip-path="url(#SVGID_4_)" fill="#FFCE45" d="M107.748,122.951c3.244,14.421,0.45,31.437-3.153,45.771
			c-1.07,4.259-0.844,8.926,0.683,11.094c1.579,2.242,4.306,3.581,6.797,4.729c5.791,2.667,9.813,5.815,14.232,10.411
			c1.771,1.841,3.395,3.916,4.16,6.354s0.543,5.301-1.086,7.269c-1.557,1.883-4.132,2.661-6.573,2.658
			c-2.442-0.002-4.825-0.679-7.203-1.234c-3.982-0.934-8.04-1.541-12.12-1.817c-3.53-0.24-7.123-0.238-10.519-1.233
			c-4.833-1.416-8.985-4.854-11.529-9.2c-2.545-4.347-3.515-9.541-3.005-14.552c0.273-2.686,0.953-5.312,1.653-7.919
			c2.9-10.798,6.899-20.252,10.563-30.815c1.499-4.323,4.255-9.202,6.896-12.938C100.185,127.792,103.237,123.721,107.748,122.951"
			/>
		<path clip-path="url(#SVGID_4_)" fill="#FFFFFF" d="M108.93,150.413c1.956-8.911,1.261-18.768-0.831-27.559
			c-0.109-0.457-0.813-0.264-0.704,0.194c1.491,6.266,2.067,12.723,1.753,19.155c-0.13,2.671-0.348,5.396-0.923,8.015
			C108.125,150.676,108.83,150.873,108.93,150.413"/>
		<path clip-path="url(#SVGID_4_)" fill="#E8A17E" d="M135.505,201.408c0,0-9.655-2.397-13.267-0.328
			c-3.612,2.067-9.096,5.089-8.933,8.932l-0.004,1.576c0,0,25.881,0.755,27.983-1.576"/>
		<path clip-path="url(#SVGID_4_)" fill="#FFCE45" d="M164.345,121.866c4.737,0.549,9.916,6.068,13.193,10.84
			c3.277,4.771,5.506,10.168,7.711,15.52c4.128,10.02,8.256,20.04,12.384,30.059c1.28,3.106,2.567,6.238,3.189,9.539
			c0.516,2.74,0.563,5.568,0.137,8.323c-0.349,2.257-1.042,4.521-2.454,6.316c-1.995,2.538-5.146,3.831-8.165,4.978
			c-6.371,2.421-12.904,4.692-19.704,5.16c-2.679,0.185-5.368,0.087-8.053-0.011c-7.413-0.271-14.857-0.544-22.152-1.896
			c-0.524-0.097-1.069-0.209-1.491-0.536c-0.438-0.338-0.683-0.86-0.912-1.363c-0.734-1.604-1.468-3.206-2.201-4.811
			c-0.41-0.895-0.829-1.84-0.75-2.822c0.106-1.316,1.074-2.386,2.044-3.282c2.571-2.379,5.531-4.335,8.728-5.77
			c6.573-2.949,14.08-3.687,20.256-7.397c0.748-0.45,1.477-0.946,2.074-1.581c2.277-2.416,2.142-6.309,0.865-9.373
			s-2.171-5.989-3.425-9.063c-2.789-6.837-4.182-11.299-4.335-17.142C161.066,139.232,161.689,129.753,164.345,121.866"/>
		<path clip-path="url(#SVGID_4_)" fill="#FFA748" d="M139.301,196.217c0.868,1.174,1.534,2.529,2.125,3.855
			c1.535,3.442,2.405,7.165,2.67,10.919c0.033,0.467,0.765,0.471,0.73,0c-0.267-3.783-1.128-7.504-2.636-10.986
			c-0.62-1.432-1.326-2.896-2.259-4.157C139.655,195.474,139.021,195.838,139.301,196.217"/>
		<path clip-path="url(#SVGID_4_)" fill="#FFFFFF" d="M161.321,150.805c-0.606-9.533,0.126-19.827,3.376-28.842
			c0.16-0.443-0.546-0.635-0.704-0.194c-3.269,9.067-4.013,19.45-3.402,29.036C160.621,151.272,161.352,151.275,161.321,150.805"/>
		<path clip-path="url(#SVGID_4_)" fill="#26476D" d="M179.881,213.854H63.168c-0.276,0-0.501-0.224-0.501-0.501v-1.926
			c0-0.277,0.225-0.501,0.501-0.501h116.713c0.277,0,0.501,0.224,0.501,0.501v1.926C180.382,213.63,180.158,213.854,179.881,213.854
			"/>
		<polygon clip-path="url(#SVGID_4_)" fill="#26476D" points="114.322,213.854 13.893,213.854 9.042,144.126 107.459,144.126 		"/>
		<polygon clip-path="url(#SVGID_4_)" fill="#C5E1F9" points="110.907,213.854 10.478,213.854 5.626,144.126 104.044,144.126 		"/>
		<g opacity="0.27" clip-path="url(#SVGID_4_)">
			<g>
				<defs>
					<rect id="SVGID_17_" x="52.27" y="172.994" width="11.994" height="11.993"/>
				</defs>
				<clipPath id="SVGID_18_">
					<use xlink:href="#SVGID_17_"  overflow="visible"/>
				</clipPath>
				<path clip-path="url(#SVGID_18_)" fill="#26476D" d="M64.264,178.99c0,3.313-2.685,5.997-5.997,5.997s-5.997-2.685-5.997-5.997
					c0-3.312,2.685-5.996,5.997-5.996S64.264,175.678,64.264,178.99"/>
			</g>
		</g>
		<g opacity="0.07" clip-path="url(#SVGID_4_)">
			<g>
				<defs>
					<rect id="SVGID_19_" x="6.469" y="156.179" width="104.438" height="57.616"/>
				</defs>
				<clipPath id="SVGID_20_">
					<use xlink:href="#SVGID_19_"  overflow="visible"/>
				</clipPath>
				<path clip-path="url(#SVGID_20_)" fill="#26476D" d="M6.469,156.179l4.009,57.616h100.429l-1.341-13.618
					C56.706,193.343,20.297,167.558,6.469,156.179"/>
			</g>
		</g>
	</g>
</g>
</svg>
