<?xml version="1.0" encoding="utf-8"?>
<!-- Generator: Adobe Illustrator 16.0.0, SVG Export Plug-In . SVG Version: 6.00 Build 0)  -->
<!DOCTYPE svg PUBLIC "-//W3C//DTD SVG 1.1//EN" "http://www.w3.org/Graphics/SVG/1.1/DTD/svg11.dtd">
<svg version="1.1" id="Layer_1" xmlns="http://www.w3.org/2000/svg" xmlns:xlink="http://www.w3.org/1999/xlink" x="0px" y="0px"
	 width="261.037px" height="43.462px" viewBox="0 0 261.037 43.462" enable-background="new 0 0 261.037 43.462"
	 xml:space="preserve">
<g>
	<defs>
		<rect id="SVGID_1_" y="0" width="261.037" height="43.462"/>
	</defs>
	<clipPath id="SVGID_2_">
		<use xlink:href="#SVGID_1_"  overflow="visible"/>
	</clipPath>
	<path clip-path="url(#SVGID_2_)" fill="#F37421" d="M10.256,23.291L2.41,30.735c-2.938,2.836-3,7.524-0.139,10.438
		c2.825,2.876,7.439,2.939,10.343,0.143l7.855-7.434c2.842-2.738,3.017-7.23,0.398-10.182C18.09,20.571,13.266,20.385,10.256,23.291
		"/>
	<path clip-path="url(#SVGID_2_)" fill="#E45025" d="M11.602,22.268c-0.476,0.285-0.929,0.622-1.346,1.023L2.41,30.735
		c-2.938,2.836-3,7.524-0.139,10.437c2.825,2.876,7.439,2.94,10.343,0.144l7.855-7.435c1.497-1.441,2.246-3.369,2.245-5.304
		C18.222,27.872,14.378,25.561,11.602,22.268"/>
	<path clip-path="url(#SVGID_2_)" fill="#4C3831" d="M105.877,19.565c0,6.125-4.184,11.086-11.086,11.086
		c-6.902,0-11.043-4.961-11.043-11.086c0-6.082,4.228-11.086,11-11.086S105.877,13.483,105.877,19.565 M89.011,19.565
		c0,3.234,1.941,6.254,5.78,6.254c3.839,0,5.781-3.02,5.781-6.254c0-3.192-2.244-6.299-5.781-6.299
		C90.995,13.266,89.011,16.373,89.011,19.565"/>
	<path clip-path="url(#SVGID_2_)" fill="#4C3831" d="M130.641,19.565c0,6.125-4.184,11.086-11.086,11.086
		c-6.902,0-11.043-4.961-11.043-11.086c0-6.082,4.228-11.086,11-11.086S130.641,13.483,130.641,19.565 M113.774,19.565
		c0,3.234,1.941,6.254,5.78,6.254c3.839,0,5.781-3.02,5.781-6.254c0-3.192-2.244-6.299-5.781-6.299
		C115.758,13.266,113.774,16.373,113.774,19.565"/>
	<path clip-path="url(#SVGID_2_)" fill="#4C3831" d="M148.416,30.176V18.787c0-2.802-1.466-5.347-4.356-5.347
		c-2.848,0-4.529,2.545-4.529,5.347v11.389h-5.263V8.866h4.874l0.023,2.714c1.122-2.157,3.945-3.058,5.973-3.058
		c2.545,0,5.09,1.035,6.298,3.968c1.898-3.019,4.356-3.882,7.117-3.882c6.039,0,9.017,3.71,9.017,10.093v11.475h-5.264V18.701
		c0-2.803-1.164-5.175-4.012-5.175c-2.846,0-4.615,2.459-4.615,5.261v11.389H148.416z"/>
	<path clip-path="url(#SVGID_2_)" fill="#4C3831" d="M176.797,8.911l-0.007,2.462c1.64-2.632,4.234-3.024,6.392-3.024
		c2.199,0,4.313,0.863,5.478,2.028l-2.372,4.573c-1.078-0.906-2.071-1.381-3.796-1.381c-2.761,0-5.306,1.467-5.306,5.393v11.215
		h-5.264V8.911H176.797z"/>
	<path clip-path="url(#SVGID_2_)" fill="#4C3831" d="M206.513,8.911h5.046v21.265h-5.305l0.086-3.105
		c-1.208,2.502-4.528,3.709-6.901,3.752c-6.299,0.044-10.957-3.838-10.957-11.301c0-7.334,4.875-11.173,11.087-11.13
		c2.847,0,5.795,1.293,7.003,3.407L206.513,8.911z M193.744,19.522c0,4.055,2.804,6.471,6.298,6.471c8.283,0,8.283-12.898,0-12.898
		C196.548,13.094,193.744,15.467,193.744,19.522"/>
	<path clip-path="url(#SVGID_2_)" fill="#4C3831" d="M231.665,30.176V19.047c0-3.235-1.77-5.694-5.133-5.694
		c-3.236,0-5.437,2.718-5.437,5.952v10.871h-5.219V8.866h4.702l0.022,2.964c2.157-2.113,4.636-3.265,7.311-3.265
		c5.004,0,9.015,3.753,9.015,10.439v11.172H231.665z"/>
	<path clip-path="url(#SVGID_2_)" fill="#4C3831" d="M257.154,6.752l3.882,2.934l-2.372,3.019c1.64,1.856,2.243,3.969,2.243,6.299
		c0,2.631-0.993,6.341-4.486,7.937c3.536,1.769,4.399,4.313,4.399,7.031c0,5.866-4.486,9.49-10.655,9.49
		c-6.168,0-10.783-3.753-10.783-9.49h5.22c0,2.762,2.545,4.573,5.563,4.573c3.021,0,5.394-1.64,5.394-4.573
		c0-2.933-2.761-4.271-5.394-4.271c-6.643,0-10.783-4.055-10.783-10.697c0-6.644,4.832-10.785,10.783-10.785
		c1.684,0,3.408,0.217,4.875,1.209L257.154,6.752z M244.602,19.004c0,3.709,2.502,5.909,5.563,5.909
		c3.021,0,5.522-2.243,5.522-5.909c0-3.667-2.502-5.996-5.522-5.996C247.104,13.008,244.602,15.293,244.602,19.004"/>
	<path clip-path="url(#SVGID_2_)" fill="#F37421" d="M35.906,0H7.539C3.375,0,0,3.375,0,7.539s3.375,7.539,7.539,7.539h18.054
		c1.515,0,2.744,1.228,2.744,2.743v17.985c0,4.164,3.375,7.54,7.539,7.54s7.539-3.376,7.539-7.54V7.509
		C43.415,3.362,40.053,0,35.906,0"/>
	<path clip-path="url(#SVGID_2_)" fill="#F37421" d="M43.415,8.022V7.509c0-1.544-0.467-2.978-1.266-4.171
		C42.745,4.824,43.179,6.393,43.415,8.022"/>
	<path clip-path="url(#SVGID_2_)" fill="#E45025" d="M28.336,28.641v7.166c0,4.163,3.375,7.539,7.539,7.539s7.539-3.376,7.539-7.539
		V13.562C42.181,21.039,35.714,27.153,28.336,28.641"/>
	<path clip-path="url(#SVGID_2_)" fill="#4C3831" d="M79.702,8.829c0,2.319-1.116,4.552-3.908,5.798
		c3.522,1.074,4.81,4.811,4.81,6.701c0,6.701-5.025,8.848-11.254,8.848H55.09V0.109h14.26C75.278,0.109,79.702,2.772,79.702,8.829
		 M60.674,12.179h8.676c3.566,0,4.725-1.504,4.725-3.222c0-1.375-1.116-3.694-4.725-3.694h-8.676V12.179z M60.674,24.893h8.676
		c2.32,0,5.627-0.773,5.627-3.608c0-2.706-3.307-4.124-5.627-4.124h-8.676V24.893z"/>
	<g clip-path="url(#SVGID_2_)">
		<path fill="#4C3831" d="M58.073,38.959h-1.839v1.705h2.05v0.513h-2.661v-4.73h2.555v0.512h-1.944v1.495h1.839V38.959z"/>
		<path fill="#4C3831" d="M64.918,41.023c-0.225,0.112-0.674,0.225-1.25,0.225c-1.333,0-2.337-0.843-2.337-2.394
			c0-1.481,1.004-2.484,2.471-2.484c0.59,0,0.962,0.126,1.123,0.21l-0.147,0.498c-0.232-0.111-0.562-0.196-0.955-0.196
			c-1.109,0-1.846,0.709-1.846,1.951c0,1.158,0.667,1.902,1.818,1.902c0.372,0,0.751-0.077,0.997-0.196L64.918,41.023z"/>
		<path fill="#4C3831" d="M72.479,38.763c0,1.628-0.989,2.491-2.197,2.491c-1.25,0-2.126-0.969-2.126-2.4
			c0-1.502,0.933-2.484,2.197-2.484C71.645,36.37,72.479,37.359,72.479,38.763z M68.809,38.84c0,1.011,0.548,1.916,1.509,1.916
			c0.969,0,1.516-0.892,1.516-1.966c0-0.94-0.491-1.923-1.509-1.923C69.314,36.868,68.809,37.801,68.809,38.84z"/>
		<path fill="#4C3831" d="M79.796,39.099c-0.035-0.659-0.078-1.452-0.07-2.042h-0.021c-0.162,0.555-0.358,1.144-0.597,1.797
			l-0.835,2.295h-0.463l-0.765-2.253c-0.225-0.667-0.414-1.277-0.547-1.839h-0.014c-0.014,0.59-0.049,1.383-0.091,2.092
			l-0.126,2.028h-0.583l0.33-4.73h0.779l0.807,2.288c0.197,0.582,0.358,1.102,0.478,1.593h0.021
			c0.119-0.477,0.288-0.996,0.498-1.593l0.842-2.288h0.779l0.295,4.73h-0.597L79.796,39.099z"/>
		<path fill="#4C3831" d="M87.969,39.099c-0.035-0.659-0.078-1.452-0.07-2.042h-0.021c-0.162,0.555-0.358,1.144-0.597,1.797
			l-0.835,2.295h-0.463l-0.765-2.253c-0.225-0.667-0.414-1.277-0.547-1.839h-0.014c-0.014,0.59-0.049,1.383-0.091,2.092
			l-0.126,2.028h-0.583l0.33-4.73h0.779l0.807,2.288c0.197,0.582,0.358,1.102,0.478,1.593h0.021
			c0.119-0.477,0.288-0.996,0.498-1.593l0.842-2.288h0.779l0.295,4.73h-0.597L87.969,39.099z"/>
		<path fill="#4C3831" d="M94.604,38.959h-1.839v1.705h2.05v0.513h-2.66v-4.73h2.555v0.512h-1.944v1.495h1.839V38.959z"/>
		<path fill="#4C3831" d="M98.136,36.509c0.309-0.063,0.751-0.098,1.172-0.098c0.653,0,1.074,0.119,1.369,0.386
			c0.239,0.211,0.372,0.533,0.372,0.898c0,0.625-0.393,1.039-0.892,1.207v0.021c0.365,0.126,0.583,0.463,0.695,0.954
			c0.154,0.66,0.267,1.116,0.365,1.299h-0.632c-0.077-0.134-0.182-0.54-0.316-1.13c-0.14-0.653-0.393-0.898-0.947-0.92h-0.576v2.05
			h-0.611V36.509z M98.747,38.665h0.625c0.653,0,1.067-0.358,1.067-0.898c0-0.61-0.442-0.878-1.088-0.885
			c-0.294,0-0.505,0.028-0.604,0.057V38.665z"/>
		<path fill="#4C3831" d="M107.754,41.023c-0.225,0.112-0.674,0.225-1.25,0.225c-1.333,0-2.337-0.843-2.337-2.394
			c0-1.481,1.004-2.484,2.471-2.484c0.59,0,0.962,0.126,1.123,0.21l-0.147,0.498c-0.232-0.111-0.562-0.196-0.955-0.196
			c-1.109,0-1.846,0.709-1.846,1.951c0,1.158,0.667,1.902,1.818,1.902c0.372,0,0.751-0.077,0.997-0.196L107.754,41.023z"/>
		<path fill="#4C3831" d="M113.722,38.959h-1.839v1.705h2.05v0.513h-2.661v-4.73h2.555v0.512h-1.944v1.495h1.839V38.959z"/>
		<path fill="#4C3831" d="M125.258,39.099c-0.035-0.659-0.078-1.452-0.07-2.042h-0.021c-0.162,0.555-0.358,1.144-0.597,1.797
			l-0.835,2.295h-0.463l-0.765-2.253c-0.225-0.667-0.414-1.277-0.547-1.839h-0.014c-0.014,0.59-0.049,1.383-0.091,2.092
			l-0.126,2.028h-0.583l0.33-4.73h0.779l0.807,2.288c0.197,0.582,0.358,1.102,0.478,1.593h0.021
			c0.119-0.477,0.288-0.996,0.498-1.593l0.842-2.288h0.779l0.295,4.73h-0.597L125.258,39.099z"/>
		<path fill="#4C3831" d="M130.208,39.689l-0.491,1.488h-0.632l1.607-4.73h0.737l1.614,4.73h-0.653l-0.505-1.488H130.208z
			 M131.76,39.212l-0.464-1.362c-0.105-0.309-0.175-0.59-0.245-0.863h-0.015c-0.07,0.281-0.147,0.568-0.238,0.856l-0.463,1.369
			H131.76z"/>
		<path fill="#4C3831" d="M136.345,36.509c0.31-0.063,0.751-0.098,1.173-0.098c0.652,0,1.073,0.119,1.368,0.386
			c0.239,0.211,0.372,0.533,0.372,0.898c0,0.625-0.393,1.039-0.892,1.207v0.021c0.365,0.126,0.583,0.463,0.695,0.954
			c0.154,0.66,0.267,1.116,0.365,1.299h-0.632c-0.077-0.134-0.183-0.54-0.316-1.13c-0.141-0.653-0.393-0.898-0.947-0.92h-0.575v2.05
			h-0.611V36.509z M136.956,38.665h0.624c0.653,0,1.067-0.358,1.067-0.898c0-0.61-0.442-0.878-1.088-0.885
			c-0.295,0-0.506,0.028-0.604,0.057V38.665z"/>
		<path fill="#4C3831" d="M142.657,36.447h0.611v2.281h0.021c0.127-0.183,0.253-0.352,0.372-0.506l1.446-1.775h0.758l-1.713,2.007
			l1.846,2.724h-0.723l-1.558-2.323l-0.449,0.52v1.804h-0.611V36.447z"/>
		<path fill="#4C3831" d="M151.447,38.959h-1.839v1.705h2.049v0.513h-2.66v-4.73h2.556v0.512h-1.944v1.495h1.839V38.959z"/>
		<path fill="#4C3831" d="M156.165,36.966h-1.438v-0.52h3.502v0.52h-1.445v4.211h-0.618V36.966z"/>
		<path fill="#4C3831" d="M161.902,36.447v4.73h-0.611v-4.73H161.902z"/>
		<path fill="#4C3831" d="M165.496,41.177v-4.73h0.667l1.517,2.394c0.351,0.554,0.624,1.053,0.849,1.537l0.015-0.008
			c-0.057-0.631-0.07-1.207-0.07-1.944v-1.979h0.575v4.73h-0.617l-1.503-2.4c-0.329-0.526-0.646-1.067-0.884-1.579l-0.021,0.007
			c0.035,0.597,0.05,1.165,0.05,1.951v2.021H165.496z"/>
		<path fill="#4C3831" d="M176.244,40.966c-0.273,0.099-0.813,0.26-1.452,0.26c-0.716,0-1.306-0.183-1.77-0.624
			c-0.407-0.394-0.659-1.025-0.659-1.762c0.007-1.411,0.976-2.443,2.562-2.443c0.548,0,0.976,0.12,1.18,0.218l-0.147,0.498
			c-0.253-0.112-0.568-0.203-1.046-0.203c-1.151,0-1.902,0.716-1.902,1.902c0,1.2,0.723,1.909,1.825,1.909
			c0.399,0,0.674-0.057,0.814-0.127v-1.41h-0.962v-0.491h1.558V40.966z"/>
		<path fill="#4C3831" d="M184.496,39.689l-0.491,1.488h-0.632l1.607-4.73h0.736l1.614,4.73h-0.652l-0.505-1.488H184.496z
			 M186.047,39.212l-0.463-1.362c-0.105-0.309-0.176-0.59-0.246-0.863h-0.014c-0.07,0.281-0.147,0.568-0.239,0.856l-0.463,1.369
			H186.047z"/>
		<path fill="#4C3831" d="M194.016,40.966c-0.273,0.099-0.813,0.26-1.452,0.26c-0.716,0-1.306-0.183-1.77-0.624
			c-0.407-0.394-0.659-1.025-0.659-1.762c0.007-1.411,0.976-2.443,2.562-2.443c0.548,0,0.976,0.12,1.18,0.218l-0.147,0.498
			c-0.253-0.112-0.568-0.203-1.046-0.203c-1.151,0-1.902,0.716-1.902,1.902c0,1.2,0.723,1.909,1.825,1.909
			c0.399,0,0.674-0.057,0.814-0.127v-1.41h-0.962v-0.491h1.558V40.966z"/>
		<path fill="#4C3831" d="M199.936,38.959h-1.839v1.705h2.049v0.513h-2.66v-4.73h2.556v0.512h-1.944v1.495h1.839V38.959z"/>
		<path fill="#4C3831" d="M203.621,41.177v-4.73h0.667l1.517,2.394c0.351,0.554,0.624,1.053,0.849,1.537l0.015-0.008
			c-0.057-0.631-0.07-1.207-0.07-1.944v-1.979h0.575v4.73h-0.617l-1.503-2.4c-0.329-0.526-0.646-1.067-0.884-1.579l-0.021,0.007
			c0.035,0.597,0.05,1.165,0.05,1.951v2.021H203.621z"/>
		<path fill="#4C3831" d="M214.075,41.023c-0.225,0.112-0.674,0.225-1.25,0.225c-1.333,0-2.337-0.843-2.337-2.394
			c0-1.481,1.004-2.484,2.471-2.484c0.59,0,0.961,0.126,1.123,0.21l-0.147,0.498c-0.231-0.111-0.562-0.196-0.955-0.196
			c-1.108,0-1.846,0.709-1.846,1.951c0,1.158,0.667,1.902,1.818,1.902c0.372,0,0.751-0.077,0.996-0.196L214.075,41.023z"/>
		<path fill="#4C3831" d="M218.429,41.177v-2.008l-1.495-2.723h0.695l0.667,1.305c0.183,0.358,0.322,0.646,0.47,0.977h0.015
			c0.133-0.31,0.295-0.618,0.478-0.977l0.681-1.305h0.694l-1.586,2.716v2.015H218.429z"/>
	</g>
</g>
</svg>
