<?xml version="1.0" encoding="utf-8"?>
<!-- Generator: Adobe Illustrator 16.0.0, SVG Export Plug-In . SVG Version: 6.00 Build 0)  -->
<!DOCTYPE svg PUBLIC "-//W3C//DTD SVG 1.1//EN" "http://www.w3.org/Graphics/SVG/1.1/DTD/svg11.dtd">
<svg version="1.1" id="Layer_1" xmlns="http://www.w3.org/2000/svg" xmlns:xlink="http://www.w3.org/1999/xlink" x="0px" y="0px"
	 width="" height="" viewBox="0 0 184.802 151.104" enable-background="new 0 0 184.802 151.104"
	 xml:space="preserve">
<g>
	<g>
		<g>
			<path fill="#D5E5FB" d="M171.276,80.896l-65.129,60.58l-33.531-31.757c-6.277,6.146-15.972,15.632-25.724,25.151
				c-6.665,6.505-12.061,11.762-16.435,16.015L0,150.85c8.447-7.996,42.459-41.226,65.373-63.684l7.006-6.866l33.896,32.103
				l49.761-46.285L171.276,80.896z"/>
		</g>
		<polygon fill="#D5E5FB" points="147.968,58.828 178.662,91.126 184.802,54.263 		"/>
	</g>
	<g>
		<g id="man_2_">
			<path fill="#233862" d="M105.981,56.6l-4.461,8.465l-2.288-0.832l0.743,2.259l-4.473,13.475
				C95.503,79.966,93.028,62.846,105.981,56.6z"/>
			<path fill="#233862" d="M98.54,64.084c0,0-4.934,18.188-5.41,35.544c0,0,4.093,1.427,10.521,0.297
				C110.112,98.791,98.54,64.084,98.54,64.084z"/>
			<path fill="#E2915A" d="M74.916,89.305c1.324-0.025,3.188,0.138,3.804-0.535c0.698-0.764,1.522-0.652,1.522-0.652l-0.167-0.873
				l-0.2-1.042c0,0-0.075-0.095-0.347-0.092c0,0-0.959,0.041-1.417-0.122c-1.115-0.398-5.551,2.259-5.402,2.997
				C72.766,89.261,74.352,89.315,74.916,89.305z"/>
			<path fill="#233862" d="M99.097,63.728c0,0-7.495,15.479-9.814,17.142c-2.32,1.661-10.586,5.254-10.586,5.254
				s-0.217,0.515-0.017,1.269c0.209,0.785,0.622,1.007,0.622,1.007s11.56-1.032,14.247-2.705c2.688-1.672,8.613-8.34,8.613-8.34
				L99.097,63.728z"/>
			<g>
				<path fill="#233862" d="M121.032,150.519h4.436c0.558-0.304,1.055-0.997,1.213-2.032c0.217-1.429,1.817-2.208,2.164-3.377
					c0.346-1.169-1.429-2.813-1.429-2.813l-0.297-0.383l-0.31-0.396l-2.943,0.692c0,0-0.072,0.702-0.117,1.595
					c-0.032,0.645-0.049,1.389-0.013,2.042c0.087,1.559-0.436,3.237-1.82,3.54C120.892,149.61,120.938,150.217,121.032,150.519z"/>
				<path fill="#233862" d="M95.29,150.519h10.144c0.487-0.595,0.308-2.792,0.234-3.51c-0.016-0.145-0.026-0.229-0.026-0.229
					s-3.463-2.771-3.939-0.648c-0.014,0.066-0.031,0.131-0.051,0.195c-0.6,1.984-3.289,2.886-4.841,3.137
					C95.802,149.628,95.428,150.154,95.29,150.519z"/>
				<linearGradient id="SVGID_1_" gradientUnits="userSpaceOnUse" x1="97.2227" y1="120.0435" x2="111.9189" y2="120.0435">
					<stop  offset="0" style="stop-color:#E65025"/>
					<stop  offset="1" style="stop-color:#F47321"/>
				</linearGradient>
				<path fill="url(#SVGID_1_)" d="M97.223,93.899c0,0,0.526,6.562,1.144,14.45c0.841,10.716,1.852,23.878,1.951,26.371
					c0.173,4.329,0.866,11.256,0.866,11.256s1.645,1.646,4.935,0.951c0,0,2.934-9.887,3.771-20.347
					c0.013-0.172,0.026-0.345,0.039-0.518c0.778-10.648,1.991-33.073,1.991-33.073L97.223,93.899z"/>
				<linearGradient id="SVGID_2_" gradientUnits="userSpaceOnUse" x1="97.2227" y1="109.7856" x2="111.9189" y2="109.7856">
					<stop  offset="0" style="stop-color:#E65025"/>
					<stop  offset="1" style="stop-color:#F47321"/>
				</linearGradient>
				<path fill="url(#SVGID_2_)" d="M97.223,93.899c0,0,0.526,6.562,1.144,14.45l11.522,18.231c0.013-0.172,0.026-0.345,0.039-0.518
					c0.778-10.648,1.991-33.073,1.991-33.073L97.223,93.899z"/>
				<linearGradient id="SVGID_3_" gradientUnits="userSpaceOnUse" x1="99.624" y1="117.145" x2="127.417" y2="117.145">
					<stop  offset="0" style="stop-color:#E65025"/>
					<stop  offset="1" style="stop-color:#F47321"/>
				</linearGradient>
				<path fill="url(#SVGID_3_)" d="M99.624,94.678c0,0,9.48,23.766,15.715,34.935c6.232,11.168,8.182,14.285,8.182,14.285
					s3.57-1.429,3.896-2.402c0,0-2.385-21.562-6.559-26.818c-2.359-2.97-5.131-11.883-5.26-14.999
					c-0.13-3.117-0.845-9.285-0.845-9.285L99.624,94.678z"/>
			</g>
			<path fill="#FFB27D" d="M101.984,60.033c3.704,1.169,10.115-1.985,10.115-1.985s-3.416-2.564-3.237-7.895l-2.864,2.309
				l-1.946,1.567c0,0,0.009,0.925,0.221,2.545c0.039,0.296,0.085,0.614,0.139,0.955c0.043,0.271-0.077,0.547-0.311,0.691
				C102.75,59.055,101.984,60.033,101.984,60.033z"/>
			<path fill="#FFFFFF" d="M96.813,94.446c0.112,0.092,0.242,0.147,0.39,0.147c1.392-0.019,5.448,0.755,8.881,0.402
				c2.894-0.278,5.455-1.136,8.206-2.368c0.365-0.164,1.205-0.613,1.187-1.021c-0.013-0.447-0.057-1.096-0.112-1.912
				c-0.195-2.839-0.534-7.723-0.203-13.356c0.06-1.049,0.09-2.09,0.094-3.114c0.029-7.636-1.484-14.351-4.527-16.624
				c0,0-2.121,1.19-3.59,1.66c-1.438,0.459-2.18,0.367-2.926-0.128c0,0-1.453,0.722-2.073,1.398
				c-1.438,1.567-2.56,3.647-3.302,6.634c-0.631,2.542-1.223,6.247-1.427,10.996C97.317,79.313,96.722,94.371,96.813,94.446z"/>
			<path fill="#2B478B" d="M114.806,69.216L110.728,56.6c0,0-9.791,3.692-10.244,17.517c-0.178,3.15-0.934,16.061,0.434,26.76
				c0,0,7.628,2.972,16.979-2.893L114.806,69.216z"/>
			<path fill="#ED975D" d="M104.052,54.029c0,0,0.009,0.925,0.221,2.545c2.156-0.37,4.602-3.854,4.602-3.854
				c-1.098-0.317-2.059-0.374-2.876-0.258L104.052,54.029z"/>
			<path fill="#FFB27D" d="M102.448,53.93c0,0,6.672,1.109,7.299-3.058c0.626-4.165,1.91-6.828-2.324-7.712s-5.303,0.581-5.85,1.921
				C101.025,46.42,100.728,53.535,102.448,53.93z"/>
			<g>
				<path fill="#233862" d="M131.728,107.824l-13.625,1.941c-1.772,0.253-3.43-0.991-3.683-2.764l-0.841-5.904
					c-0.253-1.773,0.99-3.431,2.764-3.684l13.624-1.941c1.773-0.253,3.431,0.991,3.684,2.765l0.841,5.904
					C134.745,105.914,133.5,107.572,131.728,107.824z"/>
				<path fill="#2B478B" d="M115.374,100.837l0.852,5.972c0.165,1.156,0.924,2.089,1.924,2.53c0.332,0.146,0.689,0.24,1.063,0.268
					l0,0h0.002c0.231,0.019,0.469,0.012,0.709-0.022l13.6-1.938c1.779-0.254,3.027-1.917,2.774-3.696l-0.851-5.973
					c-0.255-1.78-1.918-3.028-3.697-2.774l-4.683,0.667l-0.182-1.274c-0.083-0.589-0.632-0.999-1.22-0.915l-0.514,0.072
					l-2.848,0.407l-0.708,0.101c-0.284,0.04-0.537,0.19-0.71,0.42c-0.174,0.231-0.246,0.516-0.205,0.8l0.181,1.273l-2.713,0.387
					c-0.106,0.015-0.212,0.036-0.314,0.061c-0.001,0.001-0.001,0.001-0.002,0.001h-0.001c-1.049,0.257-1.875,1.014-2.258,1.972
					v0.001C115.369,99.686,115.292,100.254,115.374,100.837z M126.397,95.964l-4.867,0.694l-0.181-1.274
					c-0.032-0.219,0.122-0.424,0.342-0.455l1.222-0.174l2.242-0.32l0.604-0.086c0.042-0.005,0.081-0.005,0.121,0.002
					c0.169,0.027,0.31,0.162,0.335,0.34L126.397,95.964z"/>
			</g>
			<path fill="#FFB27D" d="M121.367,90.245c0,0,0.716,0.953,0.743,1.334c0.193,2.581-0.986,2.938,2.066,4.371
				c0,0,1.305,0.497,1.326-0.515c0.022-1.012-0.904-1.028-0.735-2.445c0.196-1.635,0.177-1.649-0.896-2.503l-0.71-1.174
				L121.367,90.245z"/>
			<path fill="#2B478B" d="M123.187,90.975c-1.15,0.224-2.396,0.133-2.396,0.133s-3.416-10.55-3.855-11.513
				c-0.439-0.964-10.144-12.37-10.144-12.37l3.937-10.625c0,0,2.309,1.352,4.75,5.563c3.014,5.202,6.329,13.58,6.918,14.941
				c1.762,4.071,2.372,13.198,2.372,13.198S124.09,90.798,123.187,90.975z"/>
			<path fill="#2B478B" d="M109.752,50.472c0,0-0.685-0.114-0.574-1.058s0.109-2.176-0.657-1.946
				c-0.768,0.229-0.805,0.844-1.121,0.485c-0.314-0.358-0.32-1.869-2.602-1.975c-2.282-0.104-3.209,0.689-4.271,0.223
				c-1.062-0.466-1.116-2.072-1.116-2.072s0.301,0.573,0.757,0.756c0,0-1.771-2.421,0.28-4.081c2.049-1.66,4.139-0.573,5.324-0.502
				c2.613,0.158,4.302,0.315,5.155,2.032C111.78,44.051,111.429,48.819,109.752,50.472z"/>
			<path fill="#FFB27D" d="M122.495,91.379c0,0-0.688,0.718-0.732,1.017c-0.139,0.96-0.459,1.374-0.299,1.478
				c0.334,0.217,0.775-0.493,0.986-1.13S122.495,91.379,122.495,91.379z"/>
			<path fill="#233862" d="M110.728,56.6l-4.461,8.465l-2.289-0.832l0.743,2.259l-4.473,13.475
				C100.248,79.966,97.773,62.846,110.728,56.6z"/>
		</g>
		<path fill="#FFFFFF" d="M101.984,51.567c0,0,0.26,0.687,0.909,0.705c0.65,0.019,1.151-0.612,1.151-0.612
			S102.635,51.333,101.984,51.567z"/>
	</g>
	<g>
		<g>
			<linearGradient id="SVGID_4_" gradientUnits="userSpaceOnUse" x1="61.7739" y1="107.7212" x2="83.2642" y2="107.7212">
				<stop  offset="0" style="stop-color:#E65025"/>
				<stop  offset="1" style="stop-color:#F47321"/>
			</linearGradient>
			<path fill="url(#SVGID_4_)" d="M67.168,115.432l13.548-3.139c1.764-0.409,2.872-2.186,2.463-3.949l-1.361-5.871
				c-0.408-1.764-2.185-2.872-3.948-2.463l-13.548,3.139c-1.763,0.408-2.872,2.186-2.463,3.948l1.36,5.872
				C63.627,114.732,65.404,115.84,67.168,115.432z"/>
			<linearGradient id="SVGID_5_" gradientUnits="userSpaceOnUse" x1="59.9868" y1="107.4644" x2="81.4927" y2="107.4644">
				<stop  offset="0" style="stop-color:#E65025"/>
				<stop  offset="1" style="stop-color:#F47321"/>
			</linearGradient>
			<path fill="url(#SVGID_5_)" d="M79.237,101.388L79.237,101.388c-0.71-0.765-1.765-1.176-2.846-1.035H76.39
				c-0.001,0-0.002,0.001-0.002,0c-0.106,0.014-0.212,0.032-0.319,0.058l-2.698,0.625l-0.293-1.267
				c-0.065-0.283-0.238-0.523-0.485-0.679c-0.248-0.153-0.541-0.203-0.823-0.137l-0.704,0.162l-2.833,0.656l-0.511,0.119
				c-0.585,0.136-0.952,0.722-0.815,1.307l0.294,1.268l-4.657,1.079c-1.77,0.41-2.882,2.193-2.473,3.963l1.377,5.939
				c0.41,1.77,2.193,2.883,3.963,2.472l13.523-3.132c0.239-0.056,0.465-0.136,0.677-0.237l0-0.001c0.001,0,0.001,0,0.001,0
				c0.341-0.163,0.644-0.381,0.903-0.641c0.781-0.78,1.156-1.936,0.891-3.086l-1.375-5.938
				C79.897,102.304,79.617,101.796,79.237,101.388z M67.573,101.044c-0.041-0.178,0.042-0.355,0.191-0.442
				c0.034-0.021,0.072-0.036,0.113-0.046l0.602-0.14l2.229-0.517l1.215-0.281c0.219-0.051,0.438,0.086,0.488,0.305l0.294,1.267
				l-4.84,1.121L67.573,101.044z"/>
		</g>
		<path fill="#FFB27D" d="M70.353,93.747c0,0-0.409,1.451-0.269,1.914c0.951,3.133,2.597,5.183-1.826,4.654
			c0,0,0.183-0.182-0.665-1.776c-0.977-1.839-0.96-1.865-0.084-3.362l0.302-1.71L70.353,93.747z"/>
		<path fill="#FFB27D" d="M75.919,90.015c-1.336-0.08-2.964-0.431-3.557-1.136c-0.673-0.801-1.344-1.017-1.344-1.017l0.205-0.874
			l0.246-1.044c0,0,0.08-0.093,0.354-0.078c0,0,1.047,0.236,1.436-0.063c0.388-0.301,1.1-0.118,1.537,0.173
			c0.557,0.37,1.309,0.311,1.291,0.491c0,0-1.104,0.543-1.001,0.635c1.011,0.897,3.674,1.254,3.501,1.955
			C78.518,89.333,76.487,90.05,75.919,90.015z"/>
		<path fill="#FFB27D" d="M57.305,55.893l-0.004,0.726c0,0,0.198,2.271-2.598,2.603c-2.796,0.332-5.089,0.288-5.013-1.464
			c0.252-1.356,0.703-3.462,0.722-4.585c0.007-0.417-0.022-0.86-0.1-1.359l5.418-0.108l1.596,0.261L57.305,55.893z"/>
		<path fill="#E2915A" d="M57.326,51.965l-0.021,3.928c-0.575,0.268-1.225,0.431-1.953,0.431c-2.49,0-4.1-1.826-4.94-3.151
			c0.007-0.417-0.022-0.86-0.1-1.359l5.418-0.108L57.326,51.965z"/>
		<path fill="#FFB27D" d="M49.897,50.941c0.628,3.383,4.994,3.272,6.88,3.06c0.531-0.06,0.865-0.127,0.865-0.127
			c0.599-0.16,0.933-1.103,1.088-2.338c0.308-2.444-0.082-6.032-0.494-6.949c-0.622-1.381-1.792-2.875-6.188-1.797
			C47.652,43.868,49.091,46.606,49.897,50.941z"/>
		<path fill="#233862" d="M46.326,151.104h6.186c-0.046-0.324-0.204-1.312-0.494-2.221c-0.1-0.316-0.217-0.624-0.35-0.892
			c-0.602-1.2-4.423-0.437-4.423-0.437s-0.354,0.304-0.632,1.466C46.49,149.532,46.382,150.211,46.326,151.104z"/>
		<path fill="#233862" d="M65.018,149.151c0.017,0.842,0.123,1.639,0.428,1.953h12.235c-0.155-0.443-0.596-1.108-1.852-1.313
			c-1.427-0.231-3.652-0.918-4.951-2.292c-0.463-0.487-0.808-1.063-0.959-1.735c-0.576-2.563-4.76,0.785-4.76,0.785
			S64.991,147.899,65.018,149.151z"/>
		<path fill="#2B478B" d="M56.88,121.448c0.17,0.938,0.278,1.708,0.307,2.26c0.389,7.587,6.387,24.935,7.459,25.339
			c1.66,0.626,4.274-0.705,5.642-1.141c0.567-0.181,0.949-0.753,0.823-1.333c-2.97-13.653-4.062-33.314-4.459-44.955
			c-0.201-5.863-1.207-9.913-1.207-9.913s-14.628-3.903-14.715,1.034C50.653,97.107,55.575,114.241,56.88,121.448z"/>
		<path fill="#233862" d="M56.88,121.448l9.771-19.83c-0.201-5.863-1.207-9.913-1.207-9.913s-14.628-3.903-14.715,1.034
			C50.653,97.107,55.575,114.241,56.88,121.448z"/>
		<path fill="#2B478B" d="M60.135,92.756L52.402,148.8c0,0-3.396,0.819-6.037,0.164c0,0-2.264-29.808-2.075-37.013
			c0.189-7.206-1.625-19.283,0.414-20.614C46.742,90.005,60.135,92.756,60.135,92.756z"/>
		<path fill="#233862" d="M58.406,45.116c-1.208,0.38-3.762-0.008-4.83,0.855c-1.068,0.865-0.05,2.289-1.271,2.797L52.3,48.77
			c-0.247,0.103-0.534,0.033-0.701-0.176c-0.338-0.422-0.806-0.843-1.233-0.669c-0.351,0.145-0.369,0.598-0.214,1.037
			c0.13,0.371,0.094,0.786-0.131,1.108c-0.097,0.14-0.161,0.292-0.133,0.446c0.101,0.558,0.379,1.284,0.48,1.655l0.028,0.39
			c0,0-2.044-2.213-2.905-4.075c-0.591-1.277-0.579-6.054,2.311-7.449c-0.012-0.01-0.021-0.02-0.027-0.031
			c-0.063-0.112-0.237-0.087-0.237-0.087c0.249-0.111,0.634-0.041,0.634-0.041c-0.008-0.006,0.007-0.023,0.042-0.05
			c0.051-0.338,0.391-0.579,0.391-0.579c-0.115,0.167-0.165,0.334-0.185,0.456c0.759-0.4,3.096-1.286,4.948-0.48
			c1.253,0.545,2.401,0.835,3.182,0.986c0.642,0.124,1.099,0.697,1.074,1.352C59.591,43.481,59.271,44.8,58.406,45.116z"/>
		<path fill="#E9F3FE" d="M49.031,58.731l1.78,38.2c0,0,14.859,0.243,14.435-3.12c-0.424-3.362-5.356-33.91-5.356-33.91"/>
		<path fill="#22407A" d="M53.929,82.66c0,0-0.754,10.203-2.204,16.608c0,0-8.671,0.46-10.729-2.888c0,0,1.629-13.783,1.629-16.578
			c0-0.982-0.076-2.319-0.196-3.813c-0.18-2.262-0.46-4.882-0.725-7.164c-0.369-3.179-0.708-5.706-0.708-5.706l7.149-5.81
			L53.929,82.66z"/>
		<path fill="#22407A" d="M71.135,94.732c0,0-1.618,1.013-4.165,0.673c-0.927,2.274-3.115,3.047-3.115,2.841
			c0-0.024-0.491-4.295-1.071-9.327c-0.057-0.503-0.115-1.013-0.174-1.526c-0.005-0.044-0.011-0.088-0.016-0.132
			c-0.098-0.843-0.195-1.695-0.293-2.544c-0.698-6.06-1.369-11.869-1.369-11.869c-1.52-9.309-2.808-15.46-2.808-15.46
			c3.244,0.338,5.433,1.493,6.307,3.006c2.589,4.488,4.463,15.712,5.562,24.114c0.002,0.021,0.004,0.043,0.008,0.064
			c0.189,1.45,0.355,2.815,0.497,4.046c0.01,0.077,0.018,0.153,0.026,0.229C70.928,92.367,71.135,94.732,71.135,94.732z"/>
		<path fill="#2B478B" d="M57.207,57.388"/>
		<path fill="#FFFFFF" d="M56.092,51.498c0,0,0.141,0.437,1.243,0.277c0,0,0.924-0.134,0.856-0.621
			C58.19,51.154,57.261,50.88,56.092,51.498z"/>
		<g>
			<path fill="#D9E9F9" d="M48.609,57.265c-0.018-0.364,1.709-0.868,1.709-0.868s1.976,2.74,5.232,2.787
				c0,0-0.928,1.807-2.021,2.273C53.529,61.458,48.717,59.43,48.609,57.265z"/>
			<path fill="#D9E9F9" d="M55.551,59.121c0,0,1.725-1.023,1.731-2.132c0,0,1.114-0.14,1.601,0.401c0,0,0.409,1.899-0.134,3.003
				C58.749,60.393,56.265,60.015,55.551,59.121z"/>
			<path fill="#BA4C43" d="M54.38,58.956l2.339-0.561c0,0,0.305,0.026,0.297,0.408c-0.008,0.381-0.659,1.494-0.947,1.583
				S53.827,59.727,54.38,58.956z"/>
			<path fill="#E9F3FE" d="M48.882,57.077c-0.018-0.364,1.151-1.115,1.151-1.115s2.262,2.644,5.518,2.69
				c0,0-0.928,1.807-2.021,2.274C53.529,60.926,48.99,59.242,48.882,57.077z"/>
			<path fill="#E9F3FE" d="M55.551,58.652c0,0,1.745-0.924,1.75-2.033c0,0,1.053,0.464,1.54,1.004c0,0,0.45,1.199-0.092,2.303
				C58.749,59.925,56.265,59.547,55.551,58.652z"/>
			<g>
				<linearGradient id="SVGID_6_" gradientUnits="userSpaceOnUse" x1="55.0024" y1="77.3149" x2="60.02" y2="77.3149">
					<stop  offset="0" style="stop-color:#E65025"/>
					<stop  offset="1" style="stop-color:#F47321"/>
				</linearGradient>
				<path fill="url(#SVGID_6_)" d="M59.827,90.684c-0.09,1.095-0.51,2.119-1.177,2.872l-1.048,1.183
					c-0.263,0.298-0.672,0.262-0.888-0.076l-1.265-1.984c-0.339-0.532-0.495-1.209-0.435-1.889c0.135-1.514,0.387-4.432,0.593-7.247
					c0.168-2.281,0.306-4.497,0.328-5.844c0.069-4.303-0.494-18.011-0.494-18.011l0.841,0.044c0,0,2.038,5.3,3.062,12.531
					c0.253,1.78,0.443,3.676,0.527,5.641C59.871,77.904,60.234,85.733,59.827,90.684z"/>
				<linearGradient id="SVGID_7_" gradientUnits="userSpaceOnUse" x1="55.0024" y1="83.6021" x2="60.02" y2="83.6021">
					<stop  offset="0" style="stop-color:#E65025"/>
					<stop  offset="1" style="stop-color:#F47321"/>
				</linearGradient>
				<path fill="url(#SVGID_7_)" d="M59.827,90.684c-0.09,1.095-0.51,2.119-1.177,2.872l-1.048,1.183
					c-0.263,0.298-0.672,0.262-0.888-0.076l-1.265-1.984c-0.339-0.532-0.495-1.209-0.435-1.889c0.135-1.514,0.387-4.432,0.593-7.247
					c2.355-3.229,3.34-7.664,3.736-11.279c0.253,1.78,0.443,3.676,0.527,5.641C59.871,77.904,60.234,85.733,59.827,90.684z"/>
			</g>
		</g>
		<path fill="#233862" d="M50.033,55.961c0,0,4.631,19.396,3.894,26.703c0,0-1.703-7.808-5.8-14.203c0,0,1.495-1.315,1.414-1.801
			c0,0-1.11-0.329-2.187-0.107c0,0,0.119-8.36,0.791-9.244C48.816,56.426,50.033,55.961,50.033,55.961z"/>
		<path fill="#233862" d="M57.301,56.619c-0.694,0.057,4.59,18.954,4.981,25.012c0,0-0.464-10.81-0.419-13.925
			c0,0-1.923-1.019-1.923-1.376s2.052-1.323,2.052-1.323s-1.299-6.657-2.008-7.39C59.275,56.882,57.301,56.619,57.301,56.619z"/>
		<path fill="#FFB27D" d="M66.973,96.173c0,0-0.32,0.435-0.117,1.524c0.204,1.091,0.091,1.692,0.374,1.504
			c0.282-0.188,0.865-1.497,0.865-1.497L66.973,96.173z"/>
		<path fill="#233862" d="M53.363,85.649c-5.392-0.805-8.997-5.844-10.934-9.659c-0.18-2.262-0.46-4.882-0.725-7.164l1.261-3.6
			L53.363,85.649z"/>
		<path fill="#233862" d="M70.524,88.846c-1.074,0.249-4.331,0.857-7.74,0.072c-0.057-0.503-0.115-1.013-0.174-1.526
			c-0.005-0.044-0.011-0.088-0.016-0.132c0.112-0.438,0.225-0.875,0.336-1.313c1.929,0.691,6.241,2.204,7.567,2.67
			C70.507,88.695,70.516,88.771,70.524,88.846z"/>
		<path fill="#22407A" d="M48.144,57.309c0.002,0.001-4.737,0.599-6.9,3.617c-2.162,3.018,2.481,19.457,12.119,24.722
			C58,88.18,71.376,88.751,71.376,88.751s0.735,0.073,1.027-1.407c0.102-0.516,0-1.396,0-1.396s-15.228-5.709-16.566-6.809
			C54.499,78.04,48.144,57.309,48.144,57.309z"/>
	</g>
	<path fill="#E2915A" d="M78.111,85.989c0,0-1.593-0.4-2.05-0.496c-0.533-0.113-1.021-0.514-1.177-0.325
		c-0.289,0.352,0.931,0.969,1.412,2.054c0.236,0.532,0.712,0.822,1.664,0.431C78.441,87.455,78.823,86.459,78.111,85.989z"/>
	<g>
		<circle fill="#D5E5FB" cx="130.194" cy="47.061" r="6.918"/>
	</g>
	<g>
		<circle fill="#FFFFFF" cx="130.194" cy="44.286" r="2.221"/>
		<path fill="#FFFFFF" d="M130.194,46.505c-2.146,0-3.886,1.74-3.886,3.887h7.772C134.081,48.246,132.341,46.505,130.194,46.505z"/>
	</g>
	<g>
		<circle fill="#C6DCF7" cx="79.06" cy="28.656" r="4.667"/>
	</g>
	<g>
		<circle fill="#FFFFFF" cx="79.06" cy="26.784" r="1.498"/>
		<path fill="#FFFFFF" d="M79.06,28.282c-1.447,0-2.621,1.173-2.621,2.621h5.243C81.681,29.455,80.508,28.282,79.06,28.282z"/>
	</g>
	<g>
		<g>
			<g>
				<g>
					<circle fill="#D5E5FB" cx="112.726" cy="5.343" r="0.407"/>
					<circle fill="#D5E5FB" cx="114.522" cy="5.896" r="0.407"/>
					<circle fill="#D5E5FB" cx="116.343" cy="6.456" r="0.406"/>
				</g>
				<g>
					<circle fill="#D5E5FB" cx="118.164" cy="7.017" r="0.406"/>
					<circle fill="#D5E5FB" cx="119.96" cy="7.57" r="0.406"/>
					<circle fill="#D5E5FB" cx="121.781" cy="8.13" r="0.406"/>
				</g>
			</g>
			<g>
				<g>
					<circle fill="#D5E5FB" cx="123.529" cy="8.667" r="0.406"/>
					<circle fill="#D5E5FB" cx="125.326" cy="9.22" r="0.406"/>
					<circle fill="#D5E5FB" cx="127.146" cy="9.78" r="0.406"/>
				</g>
				<g>
					<circle fill="#D5E5FB" cx="128.967" cy="10.34" r="0.406"/>
					<circle fill="#D5E5FB" cx="130.764" cy="10.893" r="0.406"/>
					<circle fill="#D5E5FB" cx="132.584" cy="11.453" r="0.406"/>
				</g>
			</g>
		</g>
		<g>
			<g>
				<g>
					<circle fill="#D5E5FB" cx="134.409" cy="12.015" r="0.407"/>
					<circle fill="#D5E5FB" cx="136.206" cy="12.568" r="0.407"/>
					<circle fill="#D5E5FB" cx="138.027" cy="13.128" r="0.406"/>
				</g>
				<g>
					<circle fill="#D5E5FB" cx="139.847" cy="13.688" r="0.406"/>
					<circle fill="#D5E5FB" cx="141.645" cy="14.241" r="0.406"/>
					<circle fill="#D5E5FB" cx="143.465" cy="14.802" r="0.406"/>
				</g>
			</g>
			<g>
				<g>
					<circle fill="#D5E5FB" cx="145.212" cy="15.339" r="0.406"/>
					<circle fill="#D5E5FB" cx="147.009" cy="15.892" r="0.406"/>
					<circle fill="#D5E5FB" cx="148.83" cy="16.452" r="0.406"/>
				</g>
				<g>
					<circle fill="#D5E5FB" cx="150.651" cy="17.012" r="0.406"/>
					<circle fill="#D5E5FB" cx="152.447" cy="17.565" r="0.406"/>
					<circle fill="#D5E5FB" cx="154.269" cy="18.125" r="0.406"/>
				</g>
			</g>
		</g>
	</g>
	<g>
		<g>
			<g>
				<g>
					<circle fill="#D5E5FB" cx="135.282" cy="39.655" r="0.406"/>
					<circle fill="#D5E5FB" cx="136.394" cy="38.139" r="0.406"/>
					<circle fill="#D5E5FB" cx="137.519" cy="36.602" r="0.406"/>
				</g>
				<g>
					<circle fill="#D5E5FB" cx="138.644" cy="35.065" r="0.406"/>
					<circle fill="#D5E5FB" cx="139.755" cy="33.549" r="0.406"/>
					<circle fill="#D5E5FB" cx="140.881" cy="32.012" r="0.406"/>
				</g>
			</g>
		</g>
		<g>
			<g>
				<g>
					<circle fill="#D5E5FB" cx="142.01" cy="30.472" r="0.406"/>
					<circle fill="#D5E5FB" cx="143.121" cy="28.955" r="0.406"/>
					<circle fill="#D5E5FB" cx="144.247" cy="27.419" r="0.406"/>
				</g>
				<g>
					<circle fill="#D5E5FB" cx="145.372" cy="25.882" r="0.406"/>
					<circle fill="#D5E5FB" cx="146.483" cy="24.365" r="0.406"/>
					<circle fill="#D5E5FB" cx="147.608" cy="22.829" r="0.407"/>
				</g>
			</g>
			<g>
				<g>
					<circle fill="#D5E5FB" cx="148.689" cy="21.354" r="0.406"/>
					<circle fill="#D5E5FB" cx="149.8" cy="19.837" r="0.406"/>
					<circle fill="#D5E5FB" cx="150.926" cy="18.301" r="0.406"/>
				</g>
				<g>
					<circle fill="#D5E5FB" cx="152.052" cy="16.764" r="0.406"/>
					<circle fill="#D5E5FB" cx="153.163" cy="15.248" r="0.406"/>
					<circle fill="#D5E5FB" cx="154.288" cy="13.711" r="0.407"/>
				</g>
			</g>
		</g>
	</g>
	<g>
		<g>
			<g>
				<g>
					<circle fill="#D5E5FB" cx="138.806" cy="46.284" r="0.406"/>
					<circle fill="#D5E5FB" cx="140.661" cy="45.98" r="0.406"/>
					<circle fill="#D5E5FB" cx="142.541" cy="45.672" r="0.406"/>
				</g>
				<g>
					<circle fill="#D5E5FB" cx="144.42" cy="45.364" r="0.407"/>
					<circle fill="#D5E5FB" cx="146.275" cy="45.06" r="0.407"/>
					<circle fill="#D5E5FB" cx="148.155" cy="44.752" r="0.406"/>
				</g>
			</g>
		</g>
		<g>
			<g>
				<g>
					<circle fill="#D5E5FB" cx="150.04" cy="44.443" r="0.406"/>
					<circle fill="#D5E5FB" cx="151.895" cy="44.139" r="0.406"/>
					<circle fill="#D5E5FB" cx="153.775" cy="43.831" r="0.406"/>
				</g>
				<g>
					<circle fill="#D5E5FB" cx="155.654" cy="43.522" r="0.407"/>
					<circle fill="#D5E5FB" cx="157.51" cy="43.219" r="0.407"/>
					<circle fill="#D5E5FB" cx="159.389" cy="42.91" r="0.406"/>
				</g>
			</g>
			<g>
				<g>
					<circle fill="#D5E5FB" cx="161.194" cy="42.614" r="0.406"/>
					<circle fill="#D5E5FB" cx="163.049" cy="42.311" r="0.407"/>
					<circle fill="#D5E5FB" cx="164.928" cy="42.002" r="0.406"/>
				</g>
				<g>
					<circle fill="#D5E5FB" cx="166.809" cy="41.694" r="0.407"/>
					<circle fill="#D5E5FB" cx="168.664" cy="41.39" r="0.406"/>
					<circle fill="#D5E5FB" cx="170.543" cy="41.082" r="0.406"/>
				</g>
			</g>
		</g>
	</g>
	<g>
		<g>
			<g>
				<g>
					<circle fill="#D5E5FB" cx="127.602" cy="38.552" r="0.406"/>
					<circle fill="#D5E5FB" cx="127.029" cy="36.761" r="0.406"/>
					<circle fill="#D5E5FB" cx="126.45" cy="34.947" r="0.406"/>
				</g>
				<g>
					<circle fill="#D5E5FB" cx="125.869" cy="33.133" r="0.407"/>
					<circle fill="#D5E5FB" cx="125.297" cy="31.342" r="0.406"/>
					<circle fill="#D5E5FB" cx="124.717" cy="29.528" r="0.407"/>
				</g>
			</g>
		</g>
		<g>
			<g>
				<g>
					<circle fill="#D5E5FB" cx="124.135" cy="27.709" r="0.406"/>
					<circle fill="#D5E5FB" cx="123.563" cy="25.918" r="0.406"/>
					<circle fill="#D5E5FB" cx="122.983" cy="24.104" r="0.407"/>
				</g>
				<g>
					<circle fill="#D5E5FB" cx="122.403" cy="22.289" r="0.406"/>
					<circle fill="#D5E5FB" cx="121.83" cy="20.499" r="0.406"/>
					<circle fill="#D5E5FB" cx="121.251" cy="18.684" r="0.406"/>
				</g>
			</g>
			<g>
				<g>
					<circle fill="#D5E5FB" cx="120.694" cy="16.943" r="0.406"/>
					<circle fill="#D5E5FB" cx="120.121" cy="15.152" r="0.406"/>
					<circle fill="#D5E5FB" cx="119.542" cy="13.338" r="0.407"/>
				</g>
				<g>
					<circle fill="#D5E5FB" cx="118.961" cy="11.523" r="0.406"/>
					<circle fill="#D5E5FB" cx="118.389" cy="9.732" r="0.407"/>
					<circle fill="#D5E5FB" cx="117.809" cy="7.918" r="0.407"/>
				</g>
			</g>
		</g>
	</g>
	<g>
		<g>
			<g>
				<g>
					<circle fill="#D5E5FB" cx="81.993" cy="26.147" r="0.406"/>
					<circle fill="#D5E5FB" cx="83.54" cy="25.079" r="0.406"/>
					<circle fill="#D5E5FB" cx="85.108" cy="23.997" r="0.406"/>
				</g>
				<g>
					<circle fill="#D5E5FB" cx="86.676" cy="22.915" r="0.407"/>
					<circle fill="#D5E5FB" cx="88.223" cy="21.847" r="0.407"/>
					<circle fill="#D5E5FB" cx="89.791" cy="20.765" r="0.406"/>
				</g>
			</g>
		</g>
		<g>
			<g>
				<g>
					<circle fill="#D5E5FB" cx="91.362" cy="19.68" r="0.406"/>
					<circle fill="#D5E5FB" cx="92.909" cy="18.612" r="0.406"/>
					<circle fill="#D5E5FB" cx="94.478" cy="17.53" r="0.406"/>
				</g>
				<g>
					<circle fill="#D5E5FB" cx="96.045" cy="16.448" r="0.407"/>
					<circle fill="#D5E5FB" cx="97.592" cy="15.38" r="0.406"/>
					<circle fill="#D5E5FB" cx="99.16" cy="14.298" r="0.406"/>
				</g>
			</g>
			<g>
				<g>
					<circle fill="#D5E5FB" cx="100.665" cy="13.26" r="0.406"/>
					<circle fill="#D5E5FB" cx="102.212" cy="12.192" r="0.406"/>
					<circle fill="#D5E5FB" cx="103.779" cy="11.11" r="0.406"/>
				</g>
				<g>
					<circle fill="#D5E5FB" cx="105.347" cy="10.028" r="0.406"/>
					<circle fill="#D5E5FB" cx="106.895" cy="8.96" r="0.407"/>
					<circle fill="#D5E5FB" cx="108.462" cy="7.877" r="0.406"/>
				</g>
			</g>
		</g>
	</g>
	<g>
		<g>
			<g>
				<g>
					<circle fill="#D5E5FB" cx="159.62" cy="21.115" r="0.406"/>
					<circle fill="#D5E5FB" cx="160.921" cy="22.472" r="0.406"/>
					<circle fill="#D5E5FB" cx="162.238" cy="23.848" r="0.406"/>
				</g>
				<g>
					<circle fill="#D5E5FB" cx="163.556" cy="25.223" r="0.406"/>
					<circle fill="#D5E5FB" cx="164.856" cy="26.581" r="0.406"/>
					<circle fill="#D5E5FB" cx="166.174" cy="27.956" r="0.406"/>
				</g>
			</g>
		</g>
		<g>
			<g>
				<g>
					<circle fill="#D5E5FB" cx="167.496" cy="29.335" r="0.406"/>
					<circle fill="#D5E5FB" cx="168.796" cy="30.693" r="0.406"/>
					<circle fill="#D5E5FB" cx="170.114" cy="32.068" r="0.406"/>
				</g>
				<g>
					<circle fill="#D5E5FB" cx="171.431" cy="33.443" r="0.406"/>
					<circle fill="#D5E5FB" cx="172.732" cy="34.801" r="0.406"/>
					<circle fill="#D5E5FB" cx="174.05" cy="36.176" r="0.406"/>
				</g>
			</g>
		</g>
	</g>
	<g>
		<circle fill="#D5E5FB" cx="115.625" cy="5.75" r="5.75"/>
	</g>
	<g>
		<circle fill="#FFFFFF" cx="115.625" cy="3.443" r="1.845"/>
		<path fill="#FFFFFF" d="M115.625,5.289c-1.783,0-3.229,1.445-3.229,3.229h6.459C118.854,6.734,117.409,5.289,115.625,5.289z"/>
	</g>
	<g>
		<circle fill="#C6DCF7" cx="155.463" cy="15.892" r="8.86"/>
	</g>
	<g>
		<circle fill="#FFFFFF" cx="155.463" cy="12.337" r="2.844"/>
		<path fill="#FFFFFF" d="M155.464,15.181c-2.75,0-4.977,2.228-4.977,4.976h9.952C160.439,17.409,158.212,15.181,155.464,15.181z"/>
	</g>
	<circle fill="#D5E5FB" cx="177.644" cy="40.17" r="5.981"/>
	<g>
		<path fill="#FFFFFF" d="M178.353,41.593c0.002-0.122-0.014-0.23-0.047-0.324c-0.034-0.094-0.089-0.18-0.166-0.256
			c-0.078-0.077-0.178-0.148-0.301-0.215c-0.123-0.065-0.273-0.13-0.451-0.194c-0.306-0.112-0.583-0.229-0.832-0.351
			c-0.25-0.122-0.463-0.261-0.639-0.418c-0.177-0.157-0.313-0.34-0.409-0.548c-0.096-0.209-0.142-0.455-0.138-0.741
			c0.004-0.247,0.051-0.473,0.143-0.675c0.09-0.203,0.219-0.379,0.384-0.528c0.165-0.148,0.362-0.27,0.591-0.36
			c0.229-0.092,0.484-0.148,0.768-0.171l0.014-0.935l0.752,0.011l-0.014,0.948c0.27,0.039,0.514,0.114,0.731,0.225
			c0.218,0.111,0.402,0.254,0.554,0.428s0.267,0.38,0.346,0.615c0.08,0.236,0.118,0.499,0.113,0.79l-1.359-0.02
			c0.006-0.35-0.068-0.612-0.221-0.788c-0.153-0.176-0.359-0.265-0.62-0.269c-0.142-0.002-0.263,0.016-0.366,0.054
			c-0.102,0.038-0.188,0.091-0.254,0.158s-0.116,0.147-0.149,0.24c-0.032,0.093-0.05,0.193-0.052,0.301
			c-0.001,0.107,0.014,0.205,0.043,0.294c0.03,0.088,0.084,0.169,0.159,0.245c0.076,0.074,0.177,0.146,0.304,0.214
			c0.125,0.067,0.281,0.138,0.469,0.21c0.303,0.118,0.578,0.238,0.826,0.361c0.247,0.123,0.459,0.265,0.636,0.423
			s0.313,0.342,0.409,0.55c0.095,0.208,0.141,0.454,0.137,0.736c-0.004,0.257-0.051,0.486-0.145,0.688
			c-0.092,0.203-0.221,0.378-0.386,0.523c-0.165,0.146-0.364,0.263-0.596,0.35s-0.489,0.142-0.772,0.164l-0.012,0.87l-0.748-0.012
			l0.012-0.865c-0.26-0.029-0.511-0.091-0.752-0.181c-0.242-0.092-0.455-0.221-0.643-0.388c-0.185-0.168-0.332-0.378-0.441-0.63
			s-0.162-0.553-0.156-0.902l1.359,0.02c-0.003,0.207,0.023,0.38,0.079,0.52c0.057,0.139,0.132,0.251,0.229,0.335
			c0.097,0.085,0.206,0.145,0.329,0.18s0.25,0.055,0.379,0.056c0.146,0.003,0.276-0.015,0.389-0.051
			c0.111-0.036,0.205-0.088,0.281-0.153c0.076-0.066,0.135-0.145,0.174-0.236C178.331,41.8,178.351,41.701,178.353,41.593z"/>
	</g>
</g>
<linearGradient id="SVGID_8_" gradientUnits="userSpaceOnUse" x1="239.7246" y1="42.9102" x2="294.7949" y2="42.9102">
	<stop  offset="0" style="stop-color:#E65025"/>
	<stop  offset="1" style="stop-color:#F47321"/>
</linearGradient>
<rect x="239.725" y="31.91" fill="url(#SVGID_8_)" width="55.07" height="22.001"/>
</svg>
